<svg width="71" height="20" viewBox="0 0 71 20" fill="none" xmlns="http://www.w3.org/2000/svg">
<g clip-path="url(#clip0_4641_661)">
<path d="M18.3062 0H21.5062V20H18.3062V0ZM32.7062 13.62C32.7062 16.6808 30.1326 16.9248 29.367 16.9248C27.4542 16.9248 27.1062 15.1344 27.1062 14.0544V6.4H23.9062V14.0384C23.9062 15.9344 24.5014 17.4992 25.5446 18.5424C26.4662 19.4648 27.847 19.9688 29.343 19.9688C30.4038 19.9688 31.9062 19.6384 32.7062 18.908V20H35.9062V6.4H32.7062V13.62ZM42.3062 1.6H39.1062V6.4H36.7062V9.6H39.1062V20H42.3062V9.6H44.7062V6.4H42.3062V1.6ZM54.7838 15.9336C54.087 16.56 53.167 16.9072 52.1574 16.9072C49.9318 16.9072 48.2974 15.2728 48.2974 13.0288C48.2974 10.7848 49.8798 9.2192 52.1574 9.2192C53.1494 9.2192 54.087 9.5496 54.8014 10.176L55.287 10.5936L57.4445 8.4368L56.9046 7.9496C55.635 6.8032 53.9494 6.16 52.1566 6.16C48.1566 6.16 45.2518 9.0464 45.2518 13.012C45.2518 16.9608 48.2262 19.9504 52.1566 19.9504C53.983 19.9504 55.6862 19.3072 56.9398 18.1424L57.4614 17.6552L55.2702 15.5L54.7838 15.9336ZM68.8661 7.5856C67.9445 6.664 66.8646 6.16 65.3686 6.16C64.3078 6.16 63.1062 6.4904 62.3062 7.22V0H59.1062V20H62.3062V12.508C62.3062 9.4472 64.4806 9.204 65.2462 9.204C67.159 9.204 67.1062 10.9952 67.1062 12.0736V20H70.3062V12.0904C70.3062 10.1944 69.9101 8.6296 68.8661 7.5856Z" fill="white"/>
<path d="M52.0516 10.75C52.6652 10.75 53.2537 10.9938 53.6876 11.4276C54.1215 11.8615 54.3652 12.45 54.3652 13.0636C54.3652 13.6772 54.1215 14.2657 53.6876 14.6996C53.2537 15.1334 52.6652 15.3772 52.0516 15.3772C51.438 15.3772 50.8496 15.1334 50.4157 14.6996C49.9818 14.2657 49.738 13.6772 49.738 13.0636C49.738 12.45 49.9818 11.8615 50.4157 11.4276C50.8496 10.9938 51.438 10.75 52.0516 10.75Z" fill="white"/>
<path d="M13.8261 14.9764C12.6093 16.2284 10.9565 16.9068 9.21733 16.9068C5.65253 16.9068 3.06053 14.1068 3.06053 10.2636C3.06053 6.40277 5.65253 3.60277 9.21733 3.60277C10.9397 3.60277 12.5741 4.28037 13.8093 5.51557L14.2957 6.00277L16.4349 3.86357L15.9653 3.37637C14.1917 1.54997 11.7917 0.55957 9.21733 0.55957C3.96533 0.55957 0.017334 4.73317 0.017334 10.2804C0.017334 15.8108 3.98293 19.9676 9.21733 19.9676C11.8093 19.9676 14.2093 18.9596 15.9829 17.1332L16.4525 16.646L14.3309 14.4724L13.8261 14.9764Z" fill="white"/>
</g>
<defs>
<clipPath id="clip0_4641_661">
<rect width="70.3235" height="20" fill="white"/>
</clipPath>
</defs>
</svg>
