<svg width="234" height="50" viewBox="0 0 234 50" fill="none" xmlns="http://www.w3.org/2000/svg">
<g clip-path="url(#clip0_4636_1246)">
<path d="M113.58 35.6824C111.492 35.6824 109.692 35.353 108.18 34.6942C106.692 34.0118 105.324 32.9883 104.076 31.6236L107.748 28.0589C108.564 28.9765 109.464 29.6942 110.448 30.2118C111.456 30.7059 112.62 30.953 113.94 30.953C115.14 30.953 116.064 30.7412 116.712 30.3177C117.384 29.8942 117.72 29.3059 117.72 28.553C117.72 27.8706 117.504 27.3177 117.072 26.8942C116.64 26.4706 116.064 26.1059 115.344 25.8C114.648 25.4942 113.868 25.2 113.004 24.9177C112.164 24.6353 111.324 24.3177 110.484 23.9648C109.644 23.5883 108.864 23.1295 108.144 22.5883C107.448 22.0236 106.884 21.3295 106.452 20.5059C106.02 19.6589 105.804 18.6 105.804 17.3295C105.804 15.8 106.176 14.4824 106.92 13.3765C107.688 12.2706 108.744 11.4353 110.088 10.8706C111.432 10.2824 112.98 9.98828 114.732 9.98828C116.508 9.98828 118.128 10.2942 119.592 10.9059C121.08 11.5177 122.304 12.353 123.264 13.4118L119.592 16.9765C118.824 16.2 118.044 15.6236 117.252 15.2471C116.484 14.8706 115.608 14.6824 114.624 14.6824C113.64 14.6824 112.86 14.8706 112.284 15.2471C111.708 15.6 111.42 16.1177 111.42 16.8C111.42 17.4353 111.636 17.953 112.068 18.353C112.5 18.7295 113.064 19.0589 113.76 19.3412C114.48 19.6236 115.26 19.9059 116.1 20.1883C116.964 20.4706 117.816 20.8 118.656 21.1765C119.496 21.553 120.264 22.0353 120.96 22.6236C121.68 23.1883 122.256 23.9177 122.688 24.8118C123.12 25.6824 123.336 26.7648 123.336 28.0589C123.336 30.4353 122.472 32.3059 120.744 33.6706C119.016 35.0118 116.628 35.6824 113.58 35.6824ZM134.967 35.6824C133.071 35.6824 131.379 35.3059 129.891 34.553C128.427 33.7765 127.275 32.7059 126.435 31.3412C125.595 29.9765 125.175 28.4353 125.175 26.7177C125.175 25 125.583 23.4706 126.399 22.1295C127.239 20.7648 128.367 19.6942 129.783 18.9177C131.199 18.1412 132.795 17.753 134.571 17.753C136.299 17.753 137.823 18.1177 139.143 18.8471C140.463 19.5765 141.495 20.5883 142.239 21.8824C143.007 23.1765 143.391 24.6589 143.391 26.3295C143.391 26.6353 143.367 26.9648 143.319 27.3177C143.295 27.6471 143.235 28.0353 143.139 28.4824L128.055 28.5177V24.8118L140.799 24.7765L138.423 26.3295C138.399 25.3412 138.243 24.5295 137.955 23.8942C137.667 23.2353 137.235 22.7412 136.659 22.4118C136.107 22.0589 135.423 21.8824 134.607 21.8824C133.743 21.8824 132.987 22.0824 132.339 22.4824C131.715 22.8589 131.223 23.4 130.863 24.1059C130.527 24.8118 130.359 25.6706 130.359 26.6824C130.359 27.6942 130.539 28.5648 130.899 29.2942C131.283 30 131.811 30.553 132.483 30.953C133.179 31.3295 133.995 31.5177 134.931 31.5177C135.795 31.5177 136.575 31.3765 137.271 31.0942C137.967 30.7883 138.579 30.3412 139.107 29.753L142.131 32.7177C141.267 33.7059 140.223 34.4471 138.999 34.9412C137.775 35.4353 136.431 35.6824 134.967 35.6824ZM151.277 35.2942L143.86 18.1412H149.8L154.841 32.4353H152.249L157.289 18.1412H163.121L155.705 35.2589L151.277 35.2942ZM173.252 35.6824C171.356 35.6824 169.664 35.3059 168.176 34.553C166.712 33.7765 165.56 32.7059 164.72 31.3412C163.88 29.9765 163.46 28.4353 163.46 26.7177C163.46 25 163.868 23.4706 164.684 22.1295C165.524 20.7648 166.652 19.6942 168.068 18.9177C169.484 18.1412 171.08 17.753 172.856 17.753C174.584 17.753 176.108 18.1177 177.428 18.8471C178.748 19.5765 179.78 20.5883 180.524 21.8824C181.292 23.1765 181.676 24.6589 181.676 26.3295C181.676 26.6353 181.652 26.9648 181.604 27.3177C181.58 27.6471 181.52 28.0353 181.424 28.4824L166.34 28.5177V24.8118L179.084 24.7765L176.708 26.3295C176.684 25.3412 176.528 24.5295 176.24 23.8942C175.952 23.2353 175.52 22.7412 174.944 22.4118C174.392 22.0589 173.708 21.8824 172.892 21.8824C172.028 21.8824 171.272 22.0824 170.624 22.4824C170 22.8589 169.508 23.4 169.148 24.1059C168.812 24.8118 168.644 25.6706 168.644 26.6824C168.644 27.6942 168.824 28.5648 169.184 29.2942C169.568 30 170.096 30.553 170.768 30.953C171.464 31.3295 172.28 31.5177 173.216 31.5177C174.08 31.5177 174.86 31.3765 175.556 31.0942C176.252 30.7883 176.864 30.3412 177.392 29.753L180.416 32.7177C179.552 33.7059 178.508 34.4471 177.284 34.9412C176.06 35.4353 174.716 35.6824 173.252 35.6824ZM184.335 35.2942V18.1412H189.843V35.2942H184.335ZM189.843 25.8706L187.539 24.1059C187.995 22.1059 188.763 20.553 189.843 19.4471C190.923 18.3412 192.423 17.7883 194.343 17.7883C195.183 17.7883 195.915 17.9177 196.539 18.1765C197.187 18.4118 197.751 18.7883 198.231 19.3059L194.955 23.3648C194.715 23.1059 194.415 22.9059 194.055 22.7648C193.695 22.6236 193.287 22.553 192.831 22.553C191.919 22.553 191.187 22.8353 190.635 23.4C190.107 23.9412 189.843 24.7648 189.843 25.8706ZM207.474 35.6824C205.866 35.6824 204.438 35.3647 203.19 34.7295C201.966 34.0706 201.006 33.1765 200.31 32.0471C199.614 30.8942 199.266 29.5765 199.266 28.0942V18.1412H204.774V28.0236C204.774 28.6118 204.87 29.1177 205.062 29.5412C205.278 29.9648 205.59 30.2942 205.998 30.5295C206.406 30.7648 206.898 30.8824 207.474 30.8824C208.29 30.8824 208.938 30.6353 209.418 30.1412C209.898 29.6236 210.138 28.9177 210.138 28.0236V18.1412H215.646V28.0589C215.646 29.5648 215.298 30.8942 214.602 32.0471C213.906 33.1765 212.946 34.0706 211.722 34.7295C210.498 35.3647 209.082 35.6824 207.474 35.6824ZM225.476 35.7177C224.444 35.7177 223.424 35.5883 222.416 35.3295C221.432 35.0706 220.508 34.7059 219.644 34.2353C218.804 33.7412 218.084 33.1765 217.484 32.5412L220.616 29.4353C221.192 30.0471 221.876 30.5295 222.668 30.8824C223.46 31.2118 224.324 31.3765 225.26 31.3765C225.908 31.3765 226.4 31.2824 226.736 31.0942C227.096 30.9059 227.276 30.6471 227.276 30.3177C227.276 29.8942 227.06 29.5765 226.628 29.3648C226.22 29.1295 225.692 28.9295 225.044 28.7648C224.396 28.5765 223.712 28.3765 222.992 28.1648C222.272 27.953 221.588 27.6589 220.94 27.2824C220.292 26.9059 219.764 26.3883 219.356 25.7295C218.948 25.0471 218.744 24.1883 218.744 23.153C218.744 22.0471 219.032 21.0942 219.608 20.2942C220.184 19.4706 221 18.8236 222.056 18.353C223.112 17.8824 224.348 17.6471 225.764 17.6471C227.252 17.6471 228.62 17.9059 229.868 18.4236C231.14 18.9177 232.172 19.6589 232.964 20.6471L229.832 23.753C229.28 23.1177 228.656 22.6706 227.96 22.4118C227.288 22.153 226.628 22.0236 225.98 22.0236C225.356 22.0236 224.888 22.1177 224.576 22.3059C224.264 22.4706 224.108 22.7177 224.108 23.0471C224.108 23.4 224.312 23.6824 224.72 23.8942C225.128 24.1059 225.656 24.2942 226.304 24.4589C226.952 24.6236 227.636 24.8236 228.356 25.0589C229.076 25.2942 229.76 25.6118 230.408 26.0118C231.056 26.4118 231.584 26.953 231.992 27.6353C232.4 28.2942 232.604 29.1648 232.604 30.2471C232.604 31.9177 231.956 33.2471 230.66 34.2353C229.388 35.2236 227.66 35.7177 225.476 35.7177Z" fill="white"/>
<path d="M20.5224 7.74303L29.7295 16.8799C30.9489 18.0899 29.4486 20.0258 27.9328 19.1983L22.9441 16.4751C22.3564 16.1544 21.6226 16.2563 21.1491 16.7248L15.5163 22.296C14.9374 22.8686 14.9367 23.7916 15.5148 24.3651L22.8232 31.6146C23.4099 32.1964 24.3681 32.1971 24.9555 31.6161L55.8552 1.05349C56.4421 0.473055 57.3991 0.473055 57.9859 1.05349L82.6735 25.4716C83.2531 26.0448 83.2531 26.9689 82.6735 27.5421L60.4789 49.4945C59.892 50.0749 58.9351 50.0749 58.3482 49.4945L49.642 40.8833C48.3522 39.6074 50.076 37.6105 51.5727 38.6469L55.2604 41.2001C55.8589 41.6144 56.6752 41.5442 57.1909 41.0341L67.0924 31.2408C67.6719 30.6676 67.6719 29.7435 67.0924 29.1702L57.9859 20.1632C57.3991 19.5829 56.4421 19.5829 55.8552 20.1632L26.1748 49.5198C25.5979 50.0904 24.661 50.1016 24.0702 49.5449L0.611844 27.4469C0.00790541 26.878 -0.00382374 25.9344 0.585792 25.3513L18.39 7.74129C18.9775 7.16018 19.9359 7.16095 20.5224 7.74303Z" fill="#00715B"/>
<path opacity="0.1" fill-rule="evenodd" clip-rule="evenodd" d="M49.1199 39.7743C49.1886 38.7553 50.4054 37.8894 51.5006 38.6478L55.1883 41.2011C55.7868 41.6153 56.6031 41.5452 57.1188 41.035L67.0202 31.2418C67.5998 30.6686 67.5998 29.7444 67.0202 29.1712L57.9138 20.1643C57.327 19.5839 56.37 19.5839 55.7831 20.1643L43.11 32.699L34.289 22.3141L55.7831 1.05447C56.37 0.474032 57.327 0.474032 57.9138 1.05447L82.6013 25.4725C83.1809 26.0458 83.1809 26.9699 82.6013 27.5431L60.4068 49.4955C59.8199 50.0759 58.863 50.0759 58.2761 49.4955L52.6533 43.934L49.1199 39.7743ZM30.095 17.3766L29.7441 16.9637L29.8491 17.0678C29.9487 17.1666 30.0302 17.2702 30.095 17.3766Z" fill="#00715B"/>
</g>
<defs>
<clipPath id="clip0_4636_1246">
<rect width="234" height="50" fill="white"/>
</clipPath>
</defs>
</svg>
