<svg width="21" height="20" viewBox="0 0 21 20" fill="none" xmlns="http://www.w3.org/2000/svg">
<path fill-rule="evenodd" clip-rule="evenodd" d="M13.701 19.6963C11.2661 19.6963 7.80252 19.5736 5.49267 19.5736C1.17262 19.5736 0 17.0178 0 13.7681C0 10.5184 0.0637037 6.92414 0.0637037 5.69224C0.0637037 2.04137 1.67989 0.0141601 5.68614 0.0141601C7.16784 0.0141601 12.7407 0 14.6377 0C18.2829 0 20.0312 1.50566 20.0312 5.91407C20.0312 7.00202 19.951 9.03871 19.951 14.6861C19.951 18.2379 18.2735 19.6963 13.701 19.6963ZM10.0439 4.69869C3.24417 4.69869 2.91621 15.0495 10.1595 15.0495C16.7753 15.0495 16.8178 4.69869 10.0439 4.69869ZM16.1902 2.64788C14.2248 2.64788 14.1304 5.6238 16.2255 5.6238C18.1367 5.61908 18.1508 2.64788 16.1902 2.64788Z" fill="white"/>
</svg>
