<svg width="21" height="21" viewBox="0 0 21 21" fill="none" xmlns="http://www.w3.org/2000/svg">
<g clip-path="url(#clip0_4641_664)">
<path fill-rule="evenodd" clip-rule="evenodd" d="M4.55802 19.575V6.67816H0.272856V19.575H4.55802V19.575ZM2.41589 4.91795C3.90974 4.91795 4.84029 3.92679 4.84029 2.68921C4.81205 1.42412 3.90974 0.460938 2.4439 0.460938C0.977823 0.460977 0.0195312 1.42416 0.0195312 2.68925C0.0195312 3.92683 0.949576 4.91799 2.38768 4.91799L2.41589 4.91795ZM6.92969 19.575C6.92969 19.575 6.98591 7.88823 6.92969 6.67819H11.2155V8.54852H11.1871C11.7506 7.66842 12.7659 6.37534 15.0775 6.37534C17.8977 6.37534 20.0116 8.21863 20.0116 12.1801V19.5751H15.7265V12.6756C15.7265 10.942 15.1065 9.75898 13.5553 9.75898C12.3716 9.75898 11.6662 10.5565 11.3564 11.3274C11.2431 11.6018 11.2155 11.9873 11.2155 12.3727V19.575H6.92969Z" fill="white"/>
</g>
<defs>
<clipPath id="clip0_4641_664">
<rect width="20.0312" height="20.0361" fill="white"/>
</clipPath>
</defs>
</svg>
