<svg width="24" height="24" viewBox="0 0 24 24" fill="none" xmlns="http://www.w3.org/2000/svg">
<g clip-path="url(#clip0_4840_2284)">
<path fill-rule="evenodd" clip-rule="evenodd" d="M5.45981 23.4473V7.99898H0.32688V23.4473H5.45981V23.4473ZM2.89388 5.89054C4.68328 5.89054 5.79793 4.70329 5.79793 3.22087C5.76409 1.70549 4.68328 0.551758 2.92744 0.551758C1.17132 0.551805 0.0234375 1.70554 0.0234375 3.22091C0.0234375 4.70334 1.13748 5.89059 2.86009 5.89059L2.89388 5.89054ZM8.30068 23.4473C8.30068 23.4473 8.36802 9.44844 8.30068 7.99902H13.4344V10.2394H13.4003C14.0754 9.18515 15.2915 7.63626 18.0605 7.63626C21.4386 7.63626 23.9707 9.84421 23.9707 14.5894V23.4474H18.8378V15.1829C18.8378 13.1063 18.0951 11.6893 16.237 11.6893C14.8192 11.6893 13.9743 12.6446 13.6032 13.5681C13.4674 13.8967 13.4344 14.3584 13.4344 14.8201V23.4473H8.30068Z" fill="white"/>
</g>
<defs>
<clipPath id="clip0_4840_2284">
<rect width="23.9942" height="24" fill="white"/>
</clipPath>
</defs>
</svg>
