<svg width="223" height="48" viewBox="0 0 223 48" fill="none" xmlns="http://www.w3.org/2000/svg">
<g clip-path="url(#clip0_4611_597)">
<path d="M108.241 34.2551C106.251 34.2551 104.536 33.9388 103.095 33.3063C101.677 32.6513 100.373 31.6687 99.1836 30.3586L102.683 26.9365C103.461 27.8174 104.318 28.5063 105.256 29.0033C106.217 29.4776 107.326 29.7148 108.584 29.7148C109.727 29.7148 110.608 29.5115 111.226 29.1049C111.866 28.6983 112.186 28.1336 112.186 27.4108C112.186 26.7558 111.98 26.2249 111.569 25.8183C111.157 25.4118 110.608 25.0616 109.922 24.768C109.259 24.4743 108.515 24.192 107.692 23.9209C106.891 23.6499 106.091 23.3449 105.29 23.0061C104.49 22.6447 103.747 22.2042 103.06 21.6847C102.397 21.1426 101.86 20.4762 101.448 19.6856C101.036 18.8725 100.83 17.856 100.83 16.6362C100.83 15.168 101.185 13.9031 101.894 12.8414C102.626 11.7798 103.632 10.9779 104.913 10.4358C106.194 9.87105 107.669 9.5887 109.339 9.5887C111.031 9.5887 112.575 9.88235 113.97 10.4696C115.388 11.0569 116.555 11.8588 117.47 12.8753L113.97 16.2974C113.238 15.552 112.495 14.9986 111.74 14.6372C111.008 14.2758 110.173 14.0951 109.236 14.0951C108.298 14.0951 107.555 14.2758 107.006 14.6372C106.457 14.976 106.182 15.4729 106.182 16.128C106.182 16.7379 106.388 17.2348 106.8 17.6188C107.212 17.9802 107.749 18.2965 108.412 18.5675C109.099 18.8386 109.842 19.1096 110.642 19.3807C111.466 19.6518 112.278 19.968 113.078 20.3294C113.879 20.6908 114.611 21.1539 115.274 21.7186C115.96 22.2607 116.509 22.9609 116.921 23.8193C117.332 24.6551 117.538 25.6941 117.538 26.9365C117.538 29.2179 116.715 31.0136 115.068 32.3238C113.421 33.6113 111.146 34.2551 108.241 34.2551ZM128.622 34.2551C126.815 34.2551 125.203 33.8936 123.785 33.1708C122.39 32.4254 121.292 31.3976 120.491 30.0875C119.691 28.7774 119.29 27.2979 119.29 25.6489C119.29 24 119.679 22.5318 120.457 21.2442C121.257 19.9341 122.332 18.9063 123.682 18.1609C125.031 17.4155 126.552 17.0428 128.245 17.0428C129.892 17.0428 131.344 17.3929 132.602 18.0932C133.86 18.7934 134.843 19.7647 135.552 21.0071C136.284 22.2494 136.65 23.6725 136.65 25.2762C136.65 25.5699 136.627 25.8861 136.582 26.2249C136.559 26.5412 136.502 26.9139 136.41 27.3431L122.035 27.3769V23.8193L134.18 23.7854L131.916 25.2762C131.893 24.3275 131.744 23.5482 131.47 22.9383C131.195 22.3059 130.784 21.8315 130.235 21.5153C129.709 21.1765 129.057 21.0071 128.279 21.0071C127.456 21.0071 126.735 21.1991 126.118 21.5831C125.523 21.9445 125.054 22.464 124.711 23.1416C124.391 23.8193 124.231 24.6438 124.231 25.6151C124.231 26.5863 124.402 27.4221 124.745 28.1223C125.111 28.8 125.615 29.3308 126.255 29.7148C126.918 30.0762 127.696 30.2569 128.588 30.2569C129.411 30.2569 130.155 30.1214 130.818 29.8503C131.481 29.5567 132.064 29.1275 132.568 28.5628L135.449 31.4089C134.626 32.3576 133.631 33.0692 132.465 33.5435C131.298 34.0179 130.017 34.2551 128.622 34.2551ZM144.165 33.8823L137.098 17.4155H142.758L147.562 31.1379H145.091L149.895 17.4155H155.452L148.385 33.8485L144.165 33.8823ZM165.107 34.2551C163.3 34.2551 161.688 33.8936 160.27 33.1708C158.875 32.4254 157.777 31.3976 156.976 30.0875C156.176 28.7774 155.775 27.2979 155.775 25.6489C155.775 24 156.164 22.5318 156.942 21.2442C157.742 19.9341 158.817 18.9063 160.167 18.1609C161.516 17.4155 163.037 17.0428 164.73 17.0428C166.376 17.0428 167.829 17.3929 169.087 18.0932C170.345 18.7934 171.328 19.7647 172.037 21.0071C172.769 22.2494 173.135 23.6725 173.135 25.2762C173.135 25.5699 173.112 25.8861 173.066 26.2249C173.044 26.5412 172.986 26.9139 172.895 27.3431L158.52 27.3769V23.8193L170.665 23.7854L168.401 25.2762C168.378 24.3275 168.229 23.5482 167.955 22.9383C167.68 22.3059 167.268 21.8315 166.72 21.5153C166.194 21.1765 165.542 21.0071 164.764 21.0071C163.941 21.0071 163.22 21.1991 162.603 21.5831C162.008 21.9445 161.539 22.464 161.196 23.1416C160.876 23.8193 160.716 24.6438 160.716 25.6151C160.716 26.5863 160.887 27.4221 161.23 28.1223C161.596 28.8 162.099 29.3308 162.74 29.7148C163.403 30.0762 164.181 30.2569 165.073 30.2569C165.896 30.2569 166.64 30.1214 167.303 29.8503C167.966 29.5567 168.549 29.1275 169.052 28.5628L171.934 31.4089C171.111 32.3576 170.116 33.0692 168.95 33.5435C167.783 34.0179 166.502 34.2551 165.107 34.2551ZM175.67 33.8823V17.4155H180.919V33.8823H175.67ZM180.919 24.8358L178.723 23.1416C179.158 21.2216 179.889 19.7308 180.919 18.6692C181.948 17.6075 183.377 17.0767 185.207 17.0767C186.008 17.0767 186.705 17.2009 187.3 17.4494C187.917 17.6753 188.455 18.0367 188.912 18.5336L185.79 22.4301C185.562 22.1816 185.276 21.9896 184.933 21.8541C184.59 21.7186 184.201 21.6508 183.766 21.6508C182.897 21.6508 182.199 21.9219 181.673 22.464C181.17 22.9835 180.919 23.7741 180.919 24.8358ZM197.721 34.2551C196.188 34.2551 194.828 33.9501 193.638 33.3402C192.472 32.7078 191.557 31.8494 190.894 30.7652C190.23 29.6583 189.899 28.3934 189.899 26.9703V17.4155H195.148V26.9026C195.148 27.4673 195.239 27.9529 195.422 28.3595C195.628 28.7661 195.925 29.0823 196.314 29.3082C196.703 29.5341 197.172 29.6471 197.721 29.6471C198.498 29.6471 199.116 29.4099 199.573 28.9355C200.031 28.4386 200.26 27.7609 200.26 26.9026V17.4155H205.509V26.9365C205.509 28.3821 205.177 29.6583 204.514 30.7652C203.85 31.8494 202.936 32.7078 201.769 33.3402C200.603 33.9501 199.253 34.2551 197.721 34.2551ZM214.876 34.2889C213.893 34.2889 212.921 34.1647 211.96 33.9162C211.022 33.6678 210.142 33.3176 209.318 32.8659C208.518 32.3915 207.832 31.8494 207.26 31.2395L210.245 28.2579C210.794 28.8452 211.445 29.3082 212.2 29.6471C212.955 29.9633 213.778 30.1214 214.67 30.1214C215.288 30.1214 215.757 30.0311 216.077 29.8503C216.42 29.6696 216.592 29.4212 216.592 29.1049C216.592 28.6983 216.386 28.3934 215.974 28.1901C215.585 27.9642 215.082 27.7722 214.464 27.6141C213.847 27.4334 213.195 27.2414 212.509 27.0381C211.823 26.8348 211.171 26.5525 210.553 26.1911C209.936 25.8296 209.433 25.3327 209.044 24.7002C208.655 24.0452 208.461 23.2207 208.461 22.2268C208.461 21.1652 208.735 20.2503 209.284 19.4823C209.833 18.6918 210.611 18.0706 211.617 17.6188C212.623 17.1671 213.801 16.9412 215.151 16.9412C216.569 16.9412 217.872 17.1896 219.062 17.6866C220.274 18.1609 221.257 18.8725 222.012 19.8212L219.027 22.8028C218.501 22.1929 217.907 21.7638 217.243 21.5153C216.603 21.2668 215.974 21.1426 215.356 21.1426C214.762 21.1426 214.316 21.2329 214.018 21.4136C213.721 21.5718 213.572 21.8089 213.572 22.1252C213.572 22.464 213.767 22.7351 214.156 22.9383C214.545 23.1416 215.048 23.3223 215.665 23.4805C216.283 23.6386 216.935 23.8306 217.621 24.0565C218.307 24.2823 218.959 24.5873 219.576 24.9713C220.194 25.3553 220.697 25.8748 221.086 26.5299C221.475 27.1623 221.669 27.9981 221.669 29.0372C221.669 30.6409 221.052 31.9172 219.816 32.8659C218.604 33.8146 216.957 34.2889 214.876 34.2889Z" fill="white"/>
<path d="M19.5577 7.43336L28.332 16.2048C29.494 17.3664 28.0643 19.2248 26.6198 18.4304L21.8656 15.8161C21.3055 15.5082 20.6062 15.6061 20.1549 16.0559L14.7869 21.4042C14.2352 21.9539 14.2346 22.84 14.7855 23.3905L21.7504 30.3501C22.3094 30.9086 23.2226 30.9093 23.7824 30.3515L53.2295 1.0114C53.7889 0.454186 54.7009 0.454186 55.2601 1.0114L78.7872 24.4528C79.3395 25.0031 79.3395 25.8902 78.7872 26.4405L57.6359 47.5148C57.0766 48.072 56.1647 48.072 55.6053 47.5148L47.3085 39.248C46.0792 38.0232 47.722 36.1062 49.1483 37.101L52.6627 39.5521C53.2331 39.9498 54.011 39.8825 54.5025 39.3927L63.9385 29.9912C64.4907 29.4409 64.4907 28.5538 63.9385 28.0035L55.2601 19.3567C54.7009 18.7996 53.7889 18.7996 53.2295 19.3567L24.9444 47.5391C24.3946 48.0868 23.5018 48.0976 22.9387 47.5632L0.583106 26.349C0.00755778 25.803 -0.00362 24.897 0.558279 24.3373L17.5255 7.43169C18.0854 6.87382 18.9987 6.87457 19.5577 7.43336Z" fill="#00715B"/>
<path opacity="0.1" fill-rule="evenodd" clip-rule="evenodd" d="M46.8109 38.1832C46.8764 37.2049 48.036 36.3737 49.0797 37.1017L52.5941 39.5528C53.1644 39.9505 53.9423 39.8832 54.4338 39.3935L63.8697 29.992C64.4221 29.4416 64.4221 28.5545 63.8697 28.0042L55.1914 19.3576C54.6322 18.8003 53.7202 18.8003 53.1608 19.3576L41.0835 31.3909L32.6772 21.4214L53.1608 1.01212C53.7202 0.454904 54.6322 0.454904 55.1914 1.01212L78.7184 24.4535C79.2707 25.0038 79.2707 25.8909 78.7184 26.4412L57.5672 47.5155C57.0079 48.0727 56.096 48.0727 55.5367 47.5155L50.1782 42.1765L46.8109 38.1832ZM28.6803 16.6814L28.3459 16.285L28.446 16.3849C28.5409 16.4798 28.6186 16.5792 28.6803 16.6814Z" fill="#00715B"/>
</g>
<defs>
<clipPath id="clip0_4611_597">
<rect width="223" height="48" fill="white"/>
</clipPath>
</defs>
</svg>
