<svg width="53" height="42" viewBox="0 0 53 42" fill="none" xmlns="http://www.w3.org/2000/svg">
<path d="M22.9012 4.54054L12.7593 23.8378L7.68827 25.1351C8.23354 23.9459 8.88786 22.973 9.65123 22.2162C10.5237 21.4595 11.5051 21.0811 12.5957 21.0811C14.8858 21.0811 16.9578 22 18.8117 23.8378C20.7747 25.6757 21.7562 28.0541 21.7562 30.973C21.7562 33.8919 20.6656 36.4865 18.4846 38.7568C16.4125 40.9189 13.9043 42 10.9599 42C8.01543 42 5.45267 40.9189 3.2716 38.7568C1.09053 36.5946 0 34 0 30.973C0 29.6757 0.272634 28.2162 0.817901 26.5946C1.36317 24.8649 2.29012 22.7027 3.59877 20.1081L14.5586 0L22.9012 4.54054ZM53 4.54054L42.858 23.8378L37.787 25.1351C38.3323 23.9459 38.9866 22.973 39.75 22.2162C40.6224 21.4595 41.6039 21.0811 42.6944 21.0811C44.9846 21.0811 47.0566 22 48.9105 23.8378C50.8735 25.6757 51.8549 28.0541 51.8549 30.973C51.8549 33.8919 50.7644 36.4865 48.5833 38.7568C46.5113 40.9189 44.0031 42 41.0586 42C38.1142 42 35.5514 40.9189 33.3704 38.7568C31.1893 36.5946 30.0988 34 30.0988 30.973C30.0988 29.6757 30.3714 28.2162 30.9167 26.5946C31.4619 24.8649 32.3889 22.7027 33.6975 20.1081L44.6574 0L53 4.54054Z" fill="#00B393"/>
</svg>
