<svg width="120" height="120" viewBox="0 0 120 120" fill="none" xmlns="http://www.w3.org/2000/svg">
<g clip-path="url(#clip0_6601_116)">
<path d="M105 0H15C6.71573 0 0 6.71573 0 15V105C0 113.284 6.71573 120 15 120H105C113.284 120 120 113.284 120 105V15C120 6.71573 113.284 0 105 0Z" fill="#0D1F1A"/>
<path d="M48 21V72C48 82.5 72 82.5 72 72V21" stroke="#1D9E75" stroke-width="2.25" stroke-linecap="round" stroke-linejoin="round"/>
<path d="M42 30H78" stroke="#1D9E75" stroke-width="2.25" stroke-linecap="round"/>
<path opacity="0.4" d="M48 66C48 78 72 78 72 66H48Z" fill="#0F6E56"/>
<path opacity="0.6" d="M48 66H72" stroke="#1D9E75" stroke-width="1.5"/>
<path d="M81 75L87 82.5L99 66" stroke="#1D9E75" stroke-width="3" stroke-linecap="round" stroke-linejoin="round"/>
<path d="M42.4961 95.7727V96.5185H39.5281V95.7727H42.4961ZM40.3931 94.4006H41.2731V99.8594C41.2731 100.108 41.3091 100.294 41.3812 100.419C41.4558 100.54 41.5503 100.623 41.6646 100.665C41.7814 100.705 41.9045 100.724 42.0338 100.724C42.1307 100.724 42.2102 100.719 42.2724 100.71C42.3345 100.697 42.3843 100.687 42.4215 100.68L42.6005 101.47C42.5409 101.493 42.4576 101.515 42.3507 101.537C42.2438 101.562 42.1083 101.575 41.9443 101.575C41.6957 101.575 41.4521 101.521 41.2134 101.414C40.9773 101.307 40.7809 101.145 40.6243 100.926C40.4702 100.707 40.3931 100.431 40.3931 100.098V94.4006ZM46.1596 101.619C45.6077 101.619 45.1317 101.498 44.7315 101.254C44.3337 101.008 44.0267 100.665 43.8105 100.225C43.5967 99.7823 43.4898 99.2678 43.4898 98.6811C43.4898 98.0945 43.5967 97.5774 43.8105 97.13C44.0267 96.68 44.3275 96.3295 44.7128 96.0785C45.1006 95.8249 45.553 95.6982 46.0701 95.6982C46.3684 95.6982 46.6629 95.7479 46.9538 95.8473C47.2446 95.9467 47.5093 96.1083 47.748 96.332C47.9866 96.5533 48.1768 96.8466 48.3185 97.212C48.4602 97.5774 48.531 98.0273 48.531 98.5618V98.9347H44.1162V98.174H47.6361C47.6361 97.8509 47.5715 97.5625 47.4422 97.3089C47.3155 97.0554 47.134 96.8553 46.8978 96.7086C46.6642 96.562 46.3883 96.4886 46.0701 96.4886C45.7196 96.4886 45.4163 96.5756 45.1603 96.7496C44.9067 96.9212 44.7116 97.1449 44.5749 97.4208C44.4381 97.6967 44.3698 97.9925 44.3698 98.3082V98.8153C44.3698 99.2479 44.4444 99.6145 44.5935 99.9153C44.7451 100.214 44.9552 100.441 45.2237 100.598C45.4921 100.752 45.8041 100.829 46.1596 100.829C46.3907 100.829 46.5995 100.797 46.786 100.732C46.9749 100.665 47.1377 100.565 47.2744 100.434C47.4112 100.299 47.5168 100.133 47.5914 99.9339L48.4415 100.173C48.352 100.461 48.2016 100.714 47.9903 100.933C47.7791 101.15 47.518 101.319 47.2073 101.44C46.8966 101.56 46.5473 101.619 46.1596 101.619ZM53.9264 97.0554L53.1359 97.2791C53.0862 97.1474 53.0129 97.0194 52.9159 96.8951C52.8215 96.7683 52.6922 96.6639 52.5282 96.5819C52.3641 96.4998 52.1541 96.4588 51.898 96.4588C51.5475 96.4588 51.2554 96.5396 51.0218 96.7012C50.7906 96.8603 50.675 97.0629 50.675 97.3089C50.675 97.5277 50.7545 97.7005 50.9136 97.8272C51.0727 97.954 51.3213 98.0597 51.6594 98.1442L52.5095 98.353C53.0216 98.4773 53.4032 98.6674 53.6542 98.9235C53.9053 99.177 54.0308 99.5039 54.0308 99.9041C54.0308 100.232 53.9364 100.526 53.7474 100.784C53.561 101.043 53.3 101.246 52.9644 101.396C52.6288 101.545 52.2386 101.619 51.7936 101.619C51.2095 101.619 50.726 101.493 50.3432 101.239C49.9603 100.985 49.718 100.615 49.6161 100.128L50.4513 99.919C50.5308 100.227 50.6812 100.458 50.9025 100.613C51.1262 100.767 51.4183 100.844 51.7787 100.844C52.1889 100.844 52.5145 100.757 52.7556 100.583C52.9992 100.406 53.121 100.195 53.121 99.9489C53.121 99.75 53.0514 99.5835 52.9122 99.4492C52.773 99.3125 52.5592 99.2106 52.2709 99.1435L51.3163 98.9197C50.7918 98.7955 50.4065 98.6028 50.1604 98.3418C49.9168 98.0783 49.795 97.7489 49.795 97.3537C49.795 97.0305 49.8858 96.7447 50.0672 96.4961C50.2512 96.2475 50.501 96.0524 50.8167 95.9107C51.1349 95.769 51.4953 95.6982 51.898 95.6982C52.4648 95.6982 52.9097 95.8224 53.2329 96.071C53.5585 96.3196 53.7897 96.6477 53.9264 97.0554ZM57.8462 95.7727V96.5185H54.8782V95.7727H57.8462ZM55.7432 94.4006H56.6232V99.8594C56.6232 100.108 56.6592 100.294 56.7313 100.419C56.8059 100.54 56.9004 100.623 57.0147 100.665C57.1315 100.705 57.2546 100.724 57.3839 100.724C57.4808 100.724 57.5603 100.719 57.6225 100.71C57.6846 100.697 57.7344 100.687 57.7716 100.68L57.9506 101.47C57.891 101.493 57.8077 101.515 57.7008 101.537C57.5939 101.562 57.4584 101.575 57.2944 101.575C57.0458 101.575 56.8022 101.521 56.5635 101.414C56.3274 101.307 56.131 101.145 55.9744 100.926C55.8203 100.707 55.7432 100.431 55.7432 100.098V94.4006ZM64.6735 95.7727V96.5185H61.5861V95.7727H64.6735ZM62.5108 101.5V94.9822C62.5108 94.6541 62.5879 94.3807 62.742 94.1619C62.8961 93.9432 63.0962 93.7791 63.3423 93.6697C63.5884 93.5604 63.8482 93.5057 64.1216 93.5057C64.3379 93.5057 64.5144 93.5231 64.6511 93.5579C64.7878 93.5927 64.8897 93.625 64.9568 93.6548L64.7033 94.4155C64.6585 94.4006 64.5964 94.3819 64.5168 94.3596C64.4398 94.3372 64.3379 94.326 64.2111 94.326C63.9203 94.326 63.7102 94.3993 63.5809 94.546C63.4542 94.6926 63.3908 94.9077 63.3908 95.1911V101.5H62.5108ZM65.9067 101.5V95.7727H66.7867V101.5H65.9067ZM66.3542 94.8182C66.1826 94.8182 66.0347 94.7598 65.9104 94.6429C65.7886 94.5261 65.7277 94.3857 65.7277 94.2216C65.7277 94.0575 65.7886 93.9171 65.9104 93.8002C66.0347 93.6834 66.1826 93.625 66.3542 93.625C66.5257 93.625 66.6723 93.6834 66.7941 93.8002C66.9184 93.9171 66.9806 94.0575 66.9806 94.2216C66.9806 94.3857 66.9184 94.5261 66.7941 94.6429C66.6723 94.7598 66.5257 94.8182 66.3542 94.8182ZM68.3984 101.5V95.7727H69.2486V96.6378H69.3082C69.4126 96.3544 69.6015 96.1245 69.875 95.948C70.1484 95.7715 70.4567 95.6832 70.7997 95.6832C70.8643 95.6832 70.9451 95.6845 71.0421 95.687C71.139 95.6895 71.2123 95.6932 71.2621 95.6982V96.593C71.2322 96.5856 71.1639 96.5744 71.057 96.5595C70.9526 96.5421 70.842 96.5334 70.7251 96.5334C70.4467 96.5334 70.1981 96.5918 69.9794 96.7086C69.7631 96.823 69.5916 96.9821 69.4648 97.1859C69.3405 97.3873 69.2784 97.6172 69.2784 97.8757V101.5H68.3984ZM76.362 97.0554L75.5715 97.2791C75.5218 97.1474 75.4484 97.0194 75.3515 96.8951C75.257 96.7683 75.1278 96.6639 74.9637 96.5819C74.7996 96.4998 74.5896 96.4588 74.3336 96.4588C73.9831 96.4588 73.691 96.5396 73.4573 96.7012C73.2261 96.8603 73.1106 97.0629 73.1106 97.3089C73.1106 97.5277 73.1901 97.7005 73.3492 97.8272C73.5083 97.954 73.7569 98.0597 74.0949 98.1442L74.9451 98.353C75.4571 98.4773 75.8387 98.6674 76.0898 98.9235C76.3408 99.177 76.4664 99.5039 76.4664 99.9041C76.4664 100.232 76.3719 100.526 76.183 100.784C75.9966 101.043 75.7356 101.246 75.4 101.396C75.0644 101.545 74.6741 101.619 74.2292 101.619C73.645 101.619 73.1615 101.493 72.7787 101.239C72.3959 100.985 72.1535 100.615 72.0516 100.128L72.8868 99.919C72.9664 100.227 73.1168 100.458 73.338 100.613C73.5617 100.767 73.8538 100.844 74.2142 100.844C74.6244 100.844 74.95 100.757 75.1912 100.583C75.4348 100.406 75.5566 100.195 75.5566 99.9489C75.5566 99.75 75.487 99.5835 75.3478 99.4492C75.2086 99.3125 74.9948 99.2106 74.7064 99.1435L73.7519 98.9197C73.2274 98.7955 72.8421 98.6028 72.596 98.3418C72.3524 98.0783 72.2306 97.7489 72.2306 97.3537C72.2306 97.0305 72.3213 96.7447 72.5028 96.4961C72.6867 96.2475 72.9365 96.0524 73.2522 95.9107C73.5704 95.769 73.9309 95.6982 74.3336 95.6982C74.9003 95.6982 75.3453 95.8224 75.6684 96.071C75.9941 96.3196 76.2253 96.6477 76.362 97.0554ZM80.2818 95.7727V96.5185H77.3137V95.7727H80.2818ZM78.1788 94.4006H79.0587V99.8594C79.0587 100.108 79.0948 100.294 79.1669 100.419C79.2415 100.54 79.3359 100.623 79.4503 100.665C79.5671 100.705 79.6901 100.724 79.8194 100.724C79.9163 100.724 79.9959 100.719 80.058 100.71C80.1202 100.697 80.1699 100.687 80.2072 100.68L80.3862 101.47C80.3265 101.493 80.2432 101.515 80.1363 101.537C80.0295 101.562 79.894 101.575 79.7299 101.575C79.4813 101.575 79.2377 101.521 78.9991 101.414C78.7629 101.307 78.5666 101.145 78.41 100.926C78.2558 100.707 78.1788 100.431 78.1788 100.098V94.4006Z" fill="#1D9E75"/>
</g>
<defs>
<clipPath id="clip0_6601_116">
<rect width="120" height="120" fill="white"/>
</clipPath>
</defs>
</svg>
