<svg width="120" height="120" viewBox="0 0 120 120" fill="none" xmlns="http://www.w3.org/2000/svg">
<g clip-path="url(#clip0_6601_1317)">
<path d="M105 0H15C6.71573 0 0 6.71573 0 15V105C0 113.284 6.71573 120 15 120H105C113.284 120 120 113.284 120 105V15C120 6.71573 113.284 0 105 0Z" fill="#0D1F1A"/>
<path d="M27 37.5C31.1421 37.5 34.5 34.1421 34.5 30C34.5 25.8579 31.1421 22.5 27 22.5C22.8579 22.5 19.5 25.8579 19.5 30C19.5 34.1421 22.8579 37.5 27 37.5Z" stroke="#1D9E75" stroke-width="1.5"/>
<path d="M27 67.5C31.1421 67.5 34.5 64.1421 34.5 60C34.5 55.8579 31.1421 52.5 27 52.5C22.8579 52.5 19.5 55.8579 19.5 60C19.5 64.1421 22.8579 67.5 27 67.5Z" stroke="#1D9E75" stroke-width="1.5"/>
<path d="M27 97.5C31.1421 97.5 34.5 94.1421 34.5 90C34.5 85.8579 31.1421 82.5 27 82.5C22.8579 82.5 19.5 85.8579 19.5 90C19.5 94.1421 22.8579 97.5 27 97.5Z" stroke="#1D9E75" stroke-width="1.5"/>
<path d="M34.5 30C60 30 57 60 67.5 60" stroke="#1D9E75" stroke-width="1.5" stroke-linecap="round"/>
<path d="M34.5 60H67.5" stroke="#1D9E75" stroke-width="1.5" stroke-linecap="round"/>
<path d="M34.5 90C60 90 57 60 67.5 60" stroke="#1D9E75" stroke-width="1.5" stroke-linecap="round"/>
<path d="M75 70.5C80.799 70.5 85.5 65.799 85.5 60C85.5 54.201 80.799 49.5 75 49.5C69.201 49.5 64.5 54.201 64.5 60C64.5 65.799 69.201 70.5 75 70.5Z" fill="#0F6E56" stroke="#1D9E75" stroke-width="1.5"/>
<path d="M85.5 60H102" stroke="#1D9E75" stroke-width="1.5" stroke-linecap="round"/>
<path d="M102 66C105.314 66 108 63.3137 108 60C108 56.6863 105.314 54 102 54C98.6863 54 96 56.6863 96 60C96 63.3137 98.6863 66 102 66Z" fill="#1D9E75"/>
</g>
<defs>
<clipPath id="clip0_6601_1317">
<rect width="120" height="120" fill="white"/>
</clipPath>
</defs>
</svg>
