<svg width="120" height="120" viewBox="0 0 120 120" fill="none" xmlns="http://www.w3.org/2000/svg">
<g clip-path="url(#clip0_6601_280)">
<path d="M105 0H15C6.71573 0 0 6.71573 0 15V105C0 113.284 6.71573 120 15 120H105C113.284 120 120 113.284 120 105V15C120 6.71573 113.284 0 105 0Z" fill="#0D1F1A"/>
<path d="M9.69034 30V25.0909H10.4446V30H9.69034ZM10.0739 24.2727C9.92685 24.2727 9.80007 24.2227 9.69354 24.1225C9.58913 24.0224 9.53693 23.902 9.53693 23.7614C9.53693 23.6207 9.58913 23.5004 9.69354 23.4002C9.80007 23.3001 9.92685 23.25 10.0739 23.25C10.2209 23.25 10.3466 23.3001 10.451 23.4002C10.5575 23.5004 10.6108 23.6207 10.6108 23.7614C10.6108 23.902 10.5575 24.0224 10.451 24.1225C10.3466 24.2227 10.2209 24.2727 10.0739 24.2727ZM14.0122 25.0909V25.7301H11.3659V25.0909H14.0122ZM12.1585 30V24.4134C12.1585 24.1321 12.2245 23.8977 12.3566 23.7102C12.4887 23.5227 12.6602 23.3821 12.8712 23.2884C13.0821 23.1946 13.3048 23.1477 13.5392 23.1477C13.7245 23.1477 13.8758 23.1626 13.993 23.1925C14.1102 23.2223 14.1975 23.25 14.2551 23.2756L14.0377 23.9276C13.9994 23.9148 13.9461 23.8988 13.8779 23.8796C13.8119 23.8604 13.7245 23.8509 13.6159 23.8509C13.3666 23.8509 13.1865 23.9137 13.0757 24.0394C12.9671 24.1651 12.9127 24.3494 12.9127 24.5923V30H12.1585ZM15.3377 27.2386C15.3377 26.4332 15.4421 25.6928 15.6509 25.0174C15.8619 24.3398 16.1623 23.7166 16.5522 23.1477H17.217C17.0636 23.3587 16.9197 23.6186 16.7855 23.9276C16.6534 24.2344 16.5373 24.5721 16.4371 24.9407C16.337 25.3072 16.2582 25.6864 16.2006 26.0785C16.1452 26.4705 16.1175 26.8572 16.1175 27.2386C16.1175 27.7457 16.1665 28.2603 16.2646 28.7823C16.3626 29.3043 16.4947 29.7891 16.6609 30.2365C16.8271 30.6839 17.0124 31.0483 17.217 31.3295H16.5522C16.1623 30.7607 15.8619 30.1385 15.6509 29.4631C15.4421 28.7855 15.3377 28.044 15.3377 27.2386ZM18.8925 25.0909L20.0686 27.098L21.2448 25.0909H22.1141L20.5289 27.5455L22.1141 30H21.2448L20.0686 28.0952L18.8925 30H18.0232L19.5828 27.5455L18.0232 25.0909H18.8925ZM23.1895 26.8423V26.152H27.127V26.8423H23.1895ZM23.1895 28.7344V28.044H27.127V28.7344H23.1895ZM29.1222 26.8423V26.152H33.0597V26.8423H29.1222ZM29.1222 28.7344V28.044H33.0597V28.7344H29.1222ZM37.0363 23.4545V30H36.2437V24.2855H36.2053L34.6073 25.3466V24.5412L36.2437 23.4545H37.0363ZM40.5423 27.2386C40.5423 28.044 40.4369 28.7855 40.2259 29.4631C40.0171 30.1385 39.7178 30.7607 39.3279 31.3295H38.6631C38.8165 31.1186 38.9593 30.8587 39.0914 30.5497C39.2256 30.2429 39.3428 29.9062 39.4429 29.5398C39.5431 29.1712 39.6208 28.7908 39.6762 28.3988C39.7338 28.0046 39.7625 27.6179 39.7625 27.2386C39.7625 26.7315 39.7135 26.217 39.6155 25.695C39.5175 25.1729 39.3854 24.6882 39.2192 24.2408C39.053 23.7933 38.8676 23.429 38.6631 23.1477H39.3279C39.7178 23.7166 40.0171 24.3398 40.2259 25.0174C40.4369 25.6928 40.5423 26.4332 40.5423 27.2386ZM41.8343 27.2514V26.8551C42.1902 26.8551 42.4384 26.7805 42.579 26.6314C42.7218 26.4822 42.7931 26.233 42.7931 25.8835V24.8608C42.7931 24.5668 42.8208 24.3121 42.8762 24.0969C42.9338 23.8817 43.0265 23.7038 43.1543 23.5632C43.2821 23.4226 43.4526 23.3182 43.6657 23.25C43.8787 23.1818 44.1419 23.1477 44.4551 23.1477V23.7741C44.2079 23.7741 44.013 23.8125 43.8702 23.8892C43.7296 23.9659 43.6294 24.0852 43.5698 24.2472C43.5123 24.407 43.4835 24.6115 43.4835 24.8608V26.1392C43.4835 26.3054 43.4611 26.4567 43.4164 26.593C43.3738 26.7294 43.2939 26.8466 43.1767 26.9446C43.0595 27.0426 42.8922 27.1183 42.6749 27.1715C42.4597 27.2248 42.1795 27.2514 41.8343 27.2514ZM44.4551 31.3295C44.1419 31.3295 43.8787 31.2955 43.6657 31.2273C43.4526 31.1591 43.2821 31.0547 43.1543 30.9141C43.0265 30.7734 42.9338 30.5955 42.8762 30.3803C42.8208 30.1651 42.7931 29.9105 42.7931 29.6165V28.5938C42.7931 28.2443 42.7218 27.995 42.579 27.8459C42.4384 27.6967 42.1902 27.6222 41.8343 27.6222V27.2259C42.1795 27.2259 42.4597 27.2525 42.6749 27.3058C42.8922 27.359 43.0595 27.4347 43.1767 27.5327C43.2939 27.6307 43.3738 27.7479 43.4164 27.8842C43.4611 28.0206 43.4835 28.1719 43.4835 28.3381V29.6165C43.4835 29.8658 43.5123 30.0703 43.5698 30.2301C43.6294 30.3899 43.7296 30.5082 43.8702 30.5849C44.013 30.6637 44.2079 30.7031 44.4551 30.7031V31.3295ZM41.8343 27.6222V26.8551H42.5886V27.6222H41.8343Z" fill="#0F6E56"/>
<path d="M11.544 42.1023C11.1349 42.1023 10.7738 41.9989 10.4606 41.7923C10.1474 41.5835 9.90234 41.2894 9.7255 40.9102C9.54865 40.5288 9.46023 40.0781 9.46023 39.5582C9.46023 39.0426 9.54865 38.5952 9.7255 38.2159C9.90234 37.8366 10.1484 37.5437 10.4638 37.337C10.7791 37.1303 11.1435 37.027 11.5568 37.027C11.8764 37.027 12.1289 37.0803 12.3143 37.1868C12.5018 37.2912 12.6445 37.4105 12.7425 37.5447C12.8427 37.6768 12.9205 37.7855 12.9759 37.8707H13.0398V35.4545H13.794V42H13.0653V41.2457H12.9759C12.9205 41.3352 12.8416 41.4482 12.7393 41.5845C12.6371 41.7187 12.4911 41.8391 12.3015 41.9457C12.1119 42.0501 11.8594 42.1023 11.544 42.1023ZM11.6463 41.4247C11.9489 41.4247 12.2045 41.3459 12.4134 41.1882C12.6222 41.0284 12.7809 40.8079 12.8896 40.5266C12.9982 40.2433 13.0526 39.9162 13.0526 39.5455C13.0526 39.179 12.9993 38.8583 12.8928 38.5835C12.7862 38.3065 12.6286 38.0913 12.4197 37.9379C12.2109 37.7823 11.9531 37.7045 11.6463 37.7045C11.3267 37.7045 11.0604 37.7866 10.8473 37.9506C10.6364 38.1126 10.4776 38.3331 10.3711 38.6122C10.2667 38.8892 10.2145 39.2003 10.2145 39.5455C10.2145 39.8949 10.2678 40.2124 10.3743 40.4979C10.483 40.7812 10.6428 41.0071 10.8537 41.1754C11.0668 41.3416 11.331 41.4247 11.6463 41.4247ZM17.2745 42.1023C16.8313 42.1023 16.4425 41.9968 16.108 41.7859C15.7756 41.5749 15.5156 41.2798 15.3281 40.9006C15.1428 40.5213 15.0501 40.0781 15.0501 39.571C15.0501 39.0597 15.1428 38.6133 15.3281 38.2319C15.5156 37.8505 15.7756 37.5543 16.108 37.3434C16.4425 37.1325 16.8313 37.027 17.2745 37.027C17.7177 37.027 18.1055 37.1325 18.4379 37.3434C18.7724 37.5543 19.0323 37.8505 19.2177 38.2319C19.4052 38.6133 19.4989 39.0597 19.4989 39.571C19.4989 40.0781 19.4052 40.5213 19.2177 40.9006C19.0323 41.2798 18.7724 41.5749 18.4379 41.7859C18.1055 41.9968 17.7177 42.1023 17.2745 42.1023ZM17.2745 41.4247C17.6112 41.4247 17.8881 41.3384 18.1055 41.1658C18.3228 40.9933 18.4837 40.7663 18.5881 40.4851C18.6925 40.2038 18.7447 39.8991 18.7447 39.571C18.7447 39.2429 18.6925 38.9371 18.5881 38.6538C18.4837 38.3704 18.3228 38.1413 18.1055 37.9666C17.8881 37.7919 17.6112 37.7045 17.2745 37.7045C16.9379 37.7045 16.6609 37.7919 16.4435 37.9666C16.2262 38.1413 16.0653 38.3704 15.9609 38.6538C15.8565 38.9371 15.8043 39.2429 15.8043 39.571C15.8043 39.8991 15.8565 40.2038 15.9609 40.4851C16.0653 40.7663 16.2262 40.9933 16.4435 41.1658C16.6609 41.3384 16.9379 41.4247 17.2745 41.4247ZM20.0343 36.1577V35.4545H24.9434V36.1577H22.8851V42H22.0925V36.1577H20.0343ZM26.8186 39.0469V42H26.0644V35.4545H26.8186V37.858H26.8825C26.9976 37.6044 27.1702 37.4031 27.4003 37.2539C27.6325 37.1026 27.9415 37.027 28.3271 37.027C28.6617 37.027 28.9546 37.0941 29.2061 37.2283C29.4575 37.3604 29.6524 37.5639 29.7909 37.8388C29.9316 38.1115 30.0019 38.4588 30.0019 38.8807V42H29.2476V38.9318C29.2476 38.5419 29.1464 38.2404 28.944 38.0273C28.7437 37.8121 28.4656 37.7045 28.1098 37.7045C27.8627 37.7045 27.6411 37.7567 27.445 37.8612C27.2512 37.9656 27.0977 38.1179 26.9848 38.3182C26.874 38.5185 26.8186 38.7614 26.8186 39.0469ZM31.3817 42V37.0909H32.136V42H31.3817ZM31.7653 36.2727C31.6183 36.2727 31.4915 36.2227 31.3849 36.1225C31.2805 36.0224 31.2283 35.902 31.2283 35.7614C31.2283 35.6207 31.2805 35.5004 31.3849 35.4002C31.4915 35.3001 31.6183 35.25 31.7653 35.25C31.9123 35.25 32.038 35.3001 32.1424 35.4002C32.2489 35.5004 32.3022 35.6207 32.3022 35.7614C32.3022 35.902 32.2489 36.0224 32.1424 36.1225C32.038 36.2227 31.9123 36.2727 31.7653 36.2727ZM34.2718 39.0469V42H33.5175V37.0909H34.2462V37.858H34.3101C34.4252 37.6087 34.5999 37.4084 34.8343 37.2571C35.0686 37.1037 35.3712 37.027 35.7419 37.027C36.0743 37.027 36.3651 37.0952 36.6144 37.2315C36.8637 37.3658 37.0576 37.5703 37.1961 37.8452C37.3346 38.1179 37.4039 38.4631 37.4039 38.8807V42H36.6496V38.9318C36.6496 38.5462 36.5494 38.2457 36.3492 38.0305C36.1489 37.8132 35.874 37.7045 35.5246 37.7045C35.2838 37.7045 35.0686 37.7567 34.879 37.8612C34.6915 37.9656 34.5434 38.1179 34.4347 38.3182C34.3261 38.5185 34.2718 38.7614 34.2718 39.0469ZM40.7637 43.9432C40.3993 43.9432 40.0861 43.8963 39.824 43.8026C39.562 43.7109 39.3436 43.5895 39.1689 43.4382C38.9963 43.2891 38.8588 43.1293 38.7566 42.9588L39.3574 42.5369C39.4256 42.6264 39.5119 42.7287 39.6163 42.8438C39.7207 42.9609 39.8635 43.0621 40.0446 43.1474C40.2278 43.2347 40.4675 43.2784 40.7637 43.2784C41.16 43.2784 41.487 43.1825 41.7449 42.9908C42.0027 42.799 42.1316 42.4986 42.1316 42.0895V41.0923H42.0676C42.0123 41.1818 41.9334 41.2926 41.8311 41.4247C41.731 41.5547 41.5861 41.6708 41.3965 41.7731C41.209 41.8732 40.9554 41.9233 40.6358 41.9233C40.2395 41.9233 39.8837 41.8295 39.5684 41.642C39.2551 41.4545 39.0069 41.1818 38.8237 40.8239C38.6426 40.4659 38.552 40.0312 38.552 39.5199C38.552 39.017 38.6404 38.5792 38.8173 38.2063C38.9941 37.8313 39.2402 37.5415 39.5556 37.337C39.8709 37.1303 40.2353 37.027 40.6486 37.027C40.9682 37.027 41.2218 37.0803 41.4093 37.1868C41.5989 37.2912 41.7438 37.4105 41.8439 37.5447C41.9462 37.6768 42.025 37.7855 42.0804 37.8707H42.1571V37.0909H42.8858V42.1406C42.8858 42.5625 42.79 42.9055 42.5982 43.1697C42.4086 43.4361 42.1529 43.631 41.8311 43.7546C41.5115 43.8803 41.1557 43.9432 40.7637 43.9432ZM40.7381 41.2457C41.0407 41.2457 41.2963 41.1765 41.5051 41.038C41.714 40.8995 41.8727 40.7003 41.9814 40.4403C42.09 40.1804 42.1444 39.8693 42.1444 39.5071C42.1444 39.1534 42.0911 38.8413 41.9846 38.5707C41.878 38.3001 41.7203 38.0881 41.5115 37.9347C41.3027 37.7812 41.0449 37.7045 40.7381 37.7045C40.4185 37.7045 40.1522 37.7855 39.9391 37.9474C39.7282 38.1094 39.5694 38.3267 39.4629 38.5994C39.3585 38.8722 39.3063 39.1747 39.3063 39.5071C39.3063 39.848 39.3596 40.1495 39.4661 40.4116C39.5748 40.6715 39.7346 40.8761 39.9455 41.0252C40.1586 41.1722 40.4228 41.2457 40.7381 41.2457ZM44.535 39.2386C44.535 38.4332 44.6394 37.6928 44.8482 37.0174C45.0591 36.3398 45.3596 35.7166 45.7495 35.1477H46.4142C46.2608 35.3587 46.117 35.6186 45.9828 35.9276C45.8507 36.2344 45.7346 36.5721 45.6344 36.9407C45.5343 37.3072 45.4554 37.6864 45.3979 38.0785C45.3425 38.4705 45.3148 38.8572 45.3148 39.2386C45.3148 39.7457 45.3638 40.2603 45.4618 40.7823C45.5598 41.3043 45.6919 41.7891 45.8581 42.2365C46.0243 42.6839 46.2097 43.0483 46.4142 43.3295H45.7495C45.3596 42.7607 45.0591 42.1385 44.8482 41.4631C44.6394 40.7855 44.535 40.044 44.535 39.2386ZM49.1381 39.2386C49.1381 40.044 49.0326 40.7855 48.8216 41.4631C48.6128 42.1385 48.3135 42.7607 47.9236 43.3295H47.2588C47.4122 43.1186 47.555 42.8587 47.6871 42.5497C47.8213 42.2429 47.9385 41.9062 48.0386 41.5398C48.1388 41.1712 48.2165 40.7908 48.2719 40.3988C48.3295 40.0046 48.3582 39.6179 48.3582 39.2386C48.3582 38.7315 48.3092 38.217 48.2112 37.695C48.1132 37.1729 47.9811 36.6882 47.8149 36.2408C47.6487 35.7933 47.4633 35.429 47.2588 35.1477H47.9236C48.3135 35.7166 48.6128 36.3398 48.8216 37.0174C49.0326 37.6928 49.1381 38.4332 49.1381 39.2386Z" fill="#0F6E56"/>
<path d="M12.0043 47.1477L9.89489 54.9844H9.20455L11.3139 47.1477H12.0043ZM15.2123 47.1477L13.1029 54.9844H12.4126L14.5219 47.1477H15.2123ZM15.8507 48.1577V47.4545H20.7598V48.1577H18.7015V54H17.9089V48.1577H15.8507ZM27.2333 50.7273C27.2333 51.4176 27.1087 52.0142 26.8594 52.517C26.6101 53.0199 26.2681 53.4077 25.8335 53.6804C25.3988 53.9531 24.9023 54.0895 24.3441 54.0895C23.7859 54.0895 23.2894 53.9531 22.8548 53.6804C22.4201 53.4077 22.0781 53.0199 21.8288 52.517C21.5795 52.0142 21.4549 51.4176 21.4549 50.7273C21.4549 50.0369 21.5795 49.4403 21.8288 48.9375C22.0781 48.4347 22.4201 48.0469 22.8548 47.7741C23.2894 47.5014 23.7859 47.3651 24.3441 47.3651C24.9023 47.3651 25.3988 47.5014 25.8335 47.7741C26.2681 48.0469 26.6101 48.4347 26.8594 48.9375C27.1087 49.4403 27.2333 50.0369 27.2333 50.7273ZM26.4663 50.7273C26.4663 50.1605 26.3714 49.6822 26.1818 49.2923C25.9943 48.9023 25.7397 48.6072 25.418 48.407C25.0984 48.2067 24.7404 48.1065 24.3441 48.1065C23.9478 48.1065 23.5888 48.2067 23.267 48.407C22.9474 48.6072 22.6928 48.9023 22.5032 49.2923C22.3157 49.6822 22.2219 50.1605 22.2219 50.7273C22.2219 51.294 22.3157 51.7724 22.5032 52.1623C22.6928 52.5522 22.9474 52.8473 23.267 53.0476C23.5888 53.2479 23.9478 53.348 24.3441 53.348C24.7404 53.348 25.0984 53.2479 25.418 53.0476C25.7397 52.8473 25.9943 52.5522 26.1818 52.1623C26.3714 51.7724 26.4663 51.294 26.4663 50.7273ZM30.5859 54H28.5661V47.4545H30.6754C31.3104 47.4545 31.8537 47.5856 32.3054 47.8477C32.7571 48.1076 33.1033 48.4815 33.3441 48.9695C33.5849 49.4553 33.7053 50.0369 33.7053 50.7145C33.7053 51.3963 33.5838 51.9833 33.3409 52.4755C33.098 52.9656 32.7443 53.3427 32.2798 53.6069C31.8153 53.869 31.2507 54 30.5859 54ZM29.3587 53.2969H30.5348C31.076 53.2969 31.5245 53.1925 31.8803 52.9837C32.2362 52.7749 32.5014 52.4776 32.6761 52.092C32.8509 51.7063 32.9382 51.2472 32.9382 50.7145C32.9382 50.1861 32.8519 49.7312 32.6793 49.3498C32.5067 48.9663 32.2489 48.6722 31.9059 48.4677C31.5629 48.261 31.1357 48.1577 30.6243 48.1577H29.3587V53.2969ZM40.5575 50.7273C40.5575 51.4176 40.4329 52.0142 40.1836 52.517C39.9343 53.0199 39.5923 53.4077 39.1577 53.6804C38.723 53.9531 38.2266 54.0895 37.6683 54.0895C37.1101 54.0895 36.6136 53.9531 36.179 53.6804C35.7443 53.4077 35.4023 53.0199 35.1531 52.517C34.9038 52.0142 34.7791 51.4176 34.7791 50.7273C34.7791 50.0369 34.9038 49.4403 35.1531 48.9375C35.4023 48.4347 35.7443 48.0469 36.179 47.7741C36.6136 47.5014 37.1101 47.3651 37.6683 47.3651C38.2266 47.3651 38.723 47.5014 39.1577 47.7741C39.5923 48.0469 39.9343 48.4347 40.1836 48.9375C40.4329 49.4403 40.5575 50.0369 40.5575 50.7273ZM39.7905 50.7273C39.7905 50.1605 39.6957 49.6822 39.506 49.2923C39.3185 48.9023 39.0639 48.6072 38.7422 48.407C38.4226 48.2067 38.0646 48.1065 37.6683 48.1065C37.272 48.1065 36.913 48.2067 36.5913 48.407C36.2717 48.6072 36.017 48.9023 35.8274 49.2923C35.6399 49.6822 35.5462 50.1605 35.5462 50.7273C35.5462 51.294 35.6399 51.7724 35.8274 52.1623C36.017 52.5522 36.2717 52.8473 36.5913 53.0476C36.913 53.2479 37.272 53.348 37.6683 53.348C38.0646 53.348 38.4226 53.2479 38.7422 53.0476C39.0639 52.8473 39.3185 52.5522 39.506 52.1623C39.6957 51.7724 39.7905 51.294 39.7905 50.7273ZM46.5053 49.0909V49.7301H43.859V49.0909H46.5053ZM44.6516 54V48.4134C44.6516 48.1321 44.7177 47.8977 44.8498 47.7102C44.9819 47.5227 45.1534 47.3821 45.3643 47.2884C45.5753 47.1946 45.7979 47.1477 46.0323 47.1477C46.2177 47.1477 46.369 47.1626 46.4862 47.1925C46.6033 47.2223 46.6907 47.25 46.7482 47.2756L46.5309 47.9276C46.4925 47.9148 46.4393 47.8988 46.3711 47.8796C46.305 47.8604 46.2177 47.8509 46.109 47.8509C45.8597 47.8509 45.6797 47.9137 45.5689 48.0394C45.4602 48.1651 45.4059 48.3494 45.4059 48.5923V54H44.6516ZM47.5624 54V49.0909H48.3167V54H47.5624ZM47.9459 48.2727C47.7989 48.2727 47.6721 48.2227 47.5656 48.1225C47.4612 48.0224 47.409 47.902 47.409 47.7614C47.409 47.6207 47.4612 47.5004 47.5656 47.4002C47.6721 47.3001 47.7989 47.25 47.9459 47.25C48.093 47.25 48.2187 47.3001 48.3231 47.4002C48.4296 47.5004 48.4829 47.6207 48.4829 47.7614C48.4829 47.902 48.4296 48.0224 48.3231 48.1225C48.2187 48.2227 48.093 48.2727 47.9459 48.2727ZM50.2607 49.0909L51.4368 51.098L52.6129 49.0909H53.4822L51.897 51.5455L53.4822 54H52.6129L51.4368 52.0952L50.2607 54H49.3913L50.951 51.5455L49.3913 49.0909H50.2607Z" fill="#0F6E56"/>
<path d="M10.4446 59.4545V66H9.69034V59.4545H10.4446ZM13.8843 66.1023C13.4113 66.1023 13.0033 65.9979 12.6602 65.7891C12.3193 65.5781 12.0562 65.2841 11.8708 64.907C11.6876 64.5277 11.596 64.0866 11.596 63.5838C11.596 63.081 11.6876 62.6378 11.8708 62.2543C12.0562 61.8686 12.314 61.5682 12.6443 61.353C12.9767 61.1357 13.3644 61.027 13.8076 61.027C14.0633 61.027 14.3158 61.0696 14.5651 61.1548C14.8144 61.2401 15.0413 61.3786 15.2458 61.5703C15.4504 61.7599 15.6134 62.0114 15.7348 62.3246C15.8563 62.6378 15.917 63.0234 15.917 63.4815V63.8011H12.1329V63.1491H15.1499C15.1499 62.8722 15.0945 62.625 14.9838 62.4077C14.8751 62.1903 14.7195 62.0188 14.5171 61.8931C14.3169 61.7674 14.0803 61.7045 13.8076 61.7045C13.5072 61.7045 13.2472 61.7791 13.0278 61.9283C12.8105 62.0753 12.6432 62.267 12.526 62.5036C12.4088 62.7401 12.3502 62.9936 12.3502 63.2642V63.6989C12.3502 64.0696 12.4142 64.3839 12.542 64.6417C12.672 64.8974 12.852 65.0923 13.0821 65.2266C13.3122 65.3587 13.5796 65.4247 13.8843 65.4247C14.0825 65.4247 14.2615 65.397 14.4213 65.3416C14.5832 65.2841 14.7227 65.1989 14.8399 65.0859C14.9571 64.9709 15.0477 64.8281 15.1116 64.6577L15.8403 64.8622C15.7636 65.1094 15.6347 65.3267 15.4536 65.5142C15.2725 65.6996 15.0487 65.8445 14.7824 65.9489C14.5161 66.0511 14.2167 66.1023 13.8843 66.1023ZM19.0459 67.9432C18.6816 67.9432 18.3683 67.8963 18.1063 67.8026C17.8442 67.7109 17.6258 67.5895 17.4511 67.4382C17.2785 67.2891 17.1411 67.1293 17.0388 66.9588L17.6396 66.5369C17.7078 66.6264 17.7941 66.7287 17.8985 66.8438C18.0029 66.9609 18.1457 67.0621 18.3268 67.1474C18.51 67.2347 18.7497 67.2784 19.0459 67.2784C19.4422 67.2784 19.7693 67.1825 20.0271 66.9908C20.2849 66.799 20.4138 66.4986 20.4138 66.0895V65.0923H20.3499C20.2945 65.1818 20.2156 65.2926 20.1134 65.4247C20.0132 65.5547 19.8683 65.6708 19.6787 65.7731C19.4912 65.8732 19.2377 65.9233 18.9181 65.9233C18.5218 65.9233 18.1659 65.8295 17.8506 65.642C17.5374 65.4545 17.2892 65.1818 17.1059 64.8239C16.9248 64.4659 16.8343 64.0312 16.8343 63.5199C16.8343 63.017 16.9227 62.5792 17.0995 62.2063C17.2764 61.8313 17.5225 61.5415 17.8378 61.337C18.1531 61.1303 18.5175 61.027 18.9308 61.027C19.2504 61.027 19.504 61.0803 19.6915 61.1868C19.8811 61.2912 20.026 61.4105 20.1262 61.5447C20.2284 61.6768 20.3073 61.7855 20.3627 61.8707H20.4394V61.0909H21.1681V66.1406C21.1681 66.5625 21.0722 66.9055 20.8804 67.1697C20.6908 67.4361 20.4351 67.631 20.1134 67.7546C19.7938 67.8803 19.4379 67.9432 19.0459 67.9432ZM19.0203 65.2457C19.3229 65.2457 19.5786 65.1765 19.7874 65.038C19.9962 64.8995 20.1549 64.7003 20.2636 64.4403C20.3722 64.1804 20.4266 63.8693 20.4266 63.5071C20.4266 63.1534 20.3733 62.8413 20.2668 62.5707C20.1602 62.3001 20.0026 62.0881 19.7938 61.9347C19.585 61.7812 19.3271 61.7045 19.0203 61.7045C18.7007 61.7045 18.4344 61.7855 18.2213 61.9474C18.0104 62.1094 17.8517 62.3267 17.7451 62.5994C17.6407 62.8722 17.5885 63.1747 17.5885 63.5071C17.5885 63.848 17.6418 64.1495 17.7483 64.4116C17.857 64.6715 18.0168 64.8761 18.2277 65.0252C18.4408 65.1722 18.705 65.2457 19.0203 65.2457ZM23.9933 66.1151C23.6823 66.1151 23.3999 66.0565 23.1464 65.9393C22.8928 65.82 22.6915 65.6484 22.5423 65.4247C22.3932 65.1989 22.3186 64.9261 22.3186 64.6065C22.3186 64.3253 22.374 64.0973 22.4848 63.9226C22.5956 63.7457 22.7437 63.6072 22.9291 63.5071C23.1144 63.407 23.319 63.3324 23.5427 63.2834C23.7686 63.2322 23.9955 63.1918 24.2235 63.1619C24.5218 63.1236 24.7636 63.0948 24.949 63.0756C25.1365 63.0543 25.2728 63.0192 25.358 62.9702C25.4454 62.9212 25.4891 62.8359 25.4891 62.7145V62.6889C25.4891 62.3736 25.4028 62.1286 25.2302 61.9538C25.0597 61.7791 24.8009 61.6918 24.4536 61.6918C24.0935 61.6918 23.8112 61.7706 23.6066 61.9283C23.4021 62.0859 23.2583 62.2543 23.1752 62.4332L22.4593 62.1776C22.5871 61.8793 22.7575 61.647 22.9706 61.4808C23.1858 61.3125 23.4202 61.1953 23.6737 61.1293C23.9294 61.0611 24.1808 61.027 24.428 61.027C24.5857 61.027 24.7668 61.0462 24.9713 61.0845C25.178 61.1207 25.3772 61.1964 25.569 61.3114C25.7629 61.4265 25.9237 61.6001 26.0516 61.8324C26.1794 62.0646 26.2433 62.3757 26.2433 62.7656V66H25.4891V65.3352H25.4507C25.3996 65.4418 25.3144 65.5558 25.195 65.6772C25.0757 65.7987 24.917 65.902 24.7188 65.9872C24.5207 66.0724 24.2789 66.1151 23.9933 66.1151ZM24.1084 65.4375C24.4067 65.4375 24.6581 65.3789 24.8627 65.2617C25.0693 65.1445 25.2249 64.9933 25.3293 64.8079C25.4358 64.6225 25.4891 64.4276 25.4891 64.223V63.5327C25.4571 63.571 25.3868 63.6062 25.2781 63.6381C25.1716 63.668 25.048 63.6946 24.9074 63.718C24.7689 63.7393 24.6336 63.7585 24.5015 63.7756C24.3715 63.7905 24.2661 63.8033 24.1851 63.8139C23.9891 63.8395 23.8058 63.881 23.6354 63.9386C23.4671 63.994 23.3307 64.0781 23.2263 64.1911C23.124 64.3018 23.0729 64.4531 23.0729 64.6449C23.0729 64.907 23.1698 65.1051 23.3637 65.2393C23.5597 65.3714 23.808 65.4375 24.1084 65.4375ZM29.6143 66.1023C29.1541 66.1023 28.7578 65.9936 28.4254 65.7763C28.093 65.5589 27.8374 65.2596 27.6584 64.8782C27.4794 64.4968 27.3899 64.0611 27.3899 63.571C27.3899 63.0724 27.4815 62.6325 27.6648 62.2511C27.8501 61.8675 28.108 61.5682 28.4382 61.353C28.7706 61.1357 29.1584 61.027 29.6016 61.027C29.9467 61.027 30.2578 61.0909 30.5348 61.2188C30.8118 61.3466 31.0387 61.5256 31.2156 61.7557C31.3924 61.9858 31.5021 62.2543 31.5447 62.5611H30.7905C30.733 62.3374 30.6051 62.1392 30.407 61.9666C30.2109 61.7919 29.9467 61.7045 29.6143 61.7045C29.3203 61.7045 29.0625 61.7812 28.8409 61.9347C28.6214 62.0859 28.4499 62.3001 28.3263 62.5771C28.2049 62.8519 28.1442 63.1747 28.1442 63.5455C28.1442 63.9247 28.2038 64.255 28.3232 64.5362C28.4446 64.8175 28.6151 65.0359 28.8345 65.1914C29.0561 65.3469 29.3161 65.4247 29.6143 65.4247C29.8104 65.4247 29.9883 65.3906 30.1481 65.3224C30.3079 65.2543 30.4432 65.1562 30.554 65.0284C30.6648 64.9006 30.7436 64.7472 30.7905 64.5682H31.5447C31.5021 64.858 31.3967 65.119 31.2283 65.3512C31.0621 65.5813 30.8416 65.7646 30.5668 65.9009C30.294 66.0352 29.9766 66.1023 29.6143 66.1023ZM33.1332 67.8409C33.0053 67.8409 32.8913 67.8303 32.7912 67.8089C32.6911 67.7898 32.6218 67.7706 32.5835 67.7514L32.7752 67.0866C32.9585 67.1335 33.1204 67.1506 33.261 67.1378C33.4016 67.125 33.5263 67.0621 33.6349 66.9492C33.7457 66.8384 33.8469 66.6584 33.9386 66.4091L34.0792 66.0256L32.2638 61.0909H33.082L34.4371 65.0028H34.4883L35.8434 61.0909H36.6616L34.5778 66.7159C34.484 66.9695 34.3679 67.1793 34.2294 67.3455C34.0909 67.5138 33.93 67.6385 33.7468 67.7195C33.5657 67.8004 33.3612 67.8409 33.1332 67.8409ZM37.9256 63.2386C37.9256 62.4332 38.03 61.6928 38.2388 61.0174C38.4498 60.3398 38.7502 59.7166 39.1401 59.1477H39.8049C39.6515 59.3587 39.5076 59.6186 39.3734 59.9276C39.2413 60.2344 39.1252 60.5721 39.025 60.9407C38.9249 61.3072 38.8461 61.6864 38.7885 62.0785C38.7331 62.4705 38.7054 62.8572 38.7054 63.2386C38.7054 63.7457 38.7544 64.2603 38.8525 64.7823C38.9505 65.3043 39.0826 65.7891 39.2488 66.2365C39.415 66.6839 39.6003 67.0483 39.8049 67.3295H39.1401C38.7502 66.7607 38.4498 66.1385 38.2388 65.4631C38.03 64.7855 37.9256 64.044 37.9256 63.2386ZM41.4804 61.0909L42.6565 63.098L43.8327 61.0909H44.702L43.1167 63.5455L44.702 66H43.8327L42.6565 64.0952L41.4804 66H40.6111L42.1707 63.5455L40.6111 61.0909H41.4804ZM47.389 63.2386C47.389 64.044 47.2836 64.7855 47.0726 65.4631C46.8638 66.1385 46.5645 66.7607 46.1745 67.3295H45.5098C45.6632 67.1186 45.8059 66.8587 45.938 66.5497C46.0723 66.2429 46.1895 65.9062 46.2896 65.5398C46.3897 65.1712 46.4675 64.7908 46.5229 64.3988C46.5804 64.0046 46.6092 63.6179 46.6092 63.2386C46.6092 62.7315 46.5602 62.217 46.4622 61.695C46.3642 61.1729 46.2321 60.6882 46.0659 60.2408C45.8997 59.7933 45.7143 59.429 45.5098 59.1477H46.1745C46.5645 59.7166 46.8638 60.3398 47.0726 61.0174C47.2836 61.6928 47.389 62.4332 47.389 63.2386Z" fill="#0F6E56"/>
<path d="M11.9276 75.2259V75.6222C11.5717 75.6222 11.3224 75.6967 11.1797 75.8459C11.0391 75.995 10.9688 76.2443 10.9688 76.5938V77.6165C10.9688 77.9105 10.94 78.1651 10.8825 78.3803C10.8271 78.5955 10.7354 78.7734 10.6076 78.9141C10.4798 79.0547 10.3093 79.1591 10.0962 79.2273C9.88317 79.2955 9.62003 79.3295 9.30682 79.3295V78.7031C9.55398 78.7031 9.74787 78.6637 9.88849 78.5849C10.0313 78.5082 10.1314 78.3899 10.1889 78.2301C10.2486 78.0703 10.2784 77.8658 10.2784 77.6165V76.3381C10.2784 76.1719 10.2997 76.0206 10.3423 75.8842C10.3871 75.7479 10.468 75.6307 10.5852 75.5327C10.7024 75.4347 10.8686 75.359 11.0838 75.3058C11.3011 75.2525 11.5824 75.2259 11.9276 75.2259ZM9.30682 71.1477C9.62003 71.1477 9.88317 71.1818 10.0962 71.25C10.3093 71.3182 10.4798 71.4226 10.6076 71.5632C10.7354 71.7038 10.8271 71.8817 10.8825 72.0969C10.94 72.3121 10.9688 72.5668 10.9688 72.8608V73.8835C10.9688 74.233 11.0391 74.4822 11.1797 74.6314C11.3224 74.7805 11.5717 74.8551 11.9276 74.8551V75.2514C11.5824 75.2514 11.3011 75.2248 11.0838 75.1715C10.8686 75.1183 10.7024 75.0426 10.5852 74.9446C10.468 74.8466 10.3871 74.7294 10.3423 74.593C10.2997 74.4567 10.2784 74.3054 10.2784 74.1392V72.8608C10.2784 72.6115 10.2486 72.407 10.1889 72.2472C10.1314 72.0852 10.0313 71.9659 9.88849 71.8892C9.74787 71.8125 9.55398 71.7741 9.30682 71.7741V71.1477ZM11.9276 74.8551V75.6222H11.1733V74.8551H11.9276Z" fill="#0F6E56"/>
<path opacity="0.4" d="M6 51H57" stroke="#0F6E56" stroke-width="1.2"/>
<path d="M57 60H75" stroke="#1D9E75" stroke-width="2.7" stroke-linecap="round"/>
<path d="M69 54L76.5 60L69 66" stroke="#1D9E75" stroke-width="2.25" stroke-linecap="round" stroke-linejoin="round"/>
<path d="M80.6847 30.1023C80.2244 30.1023 79.8281 29.9936 79.4957 29.7763C79.1634 29.5589 78.9077 29.2596 78.7287 28.8782C78.5497 28.4968 78.4602 28.0611 78.4602 27.571C78.4602 27.0724 78.5518 26.6325 78.7351 26.2511C78.9205 25.8675 79.1783 25.5682 79.5085 25.353C79.8409 25.1357 80.2287 25.027 80.6719 25.027C81.017 25.027 81.3281 25.0909 81.6051 25.2188C81.8821 25.3466 82.109 25.5256 82.2859 25.7557C82.4627 25.9858 82.5724 26.2543 82.6151 26.5611H81.8608C81.8033 26.3374 81.6754 26.1392 81.4773 25.9666C81.2813 25.7919 81.017 25.7045 80.6847 25.7045C80.3906 25.7045 80.1328 25.7812 79.9112 25.9347C79.6918 26.0859 79.5202 26.3001 79.3967 26.5771C79.2752 26.8519 79.2145 27.1747 79.2145 27.5455C79.2145 27.9247 79.2741 28.255 79.3935 28.5362C79.5149 28.8175 79.6854 29.0359 79.9048 29.1914C80.1264 29.3469 80.3864 29.4247 80.6847 29.4247C80.8807 29.4247 81.0586 29.3906 81.2184 29.3224C81.3782 29.2543 81.5135 29.1562 81.6243 29.0284C81.7351 28.9006 81.8139 28.7472 81.8608 28.5682H82.6151C82.5724 28.858 82.467 29.119 82.2987 29.3512C82.1325 29.5813 81.9119 29.7646 81.6371 29.9009C81.3643 30.0352 81.0469 30.1023 80.6847 30.1023ZM85.712 30.1023C85.2688 30.1023 84.88 29.9968 84.5455 29.7859C84.2131 29.5749 83.9531 29.2798 83.7656 28.9006C83.5803 28.5213 83.4876 28.0781 83.4876 27.571C83.4876 27.0597 83.5803 26.6133 83.7656 26.2319C83.9531 25.8505 84.2131 25.5543 84.5455 25.3434C84.88 25.1325 85.2688 25.027 85.712 25.027C86.1552 25.027 86.543 25.1325 86.8754 25.3434C87.2099 25.5543 87.4698 25.8505 87.6552 26.2319C87.8427 26.6133 87.9364 27.0597 87.9364 27.571C87.9364 28.0781 87.8427 28.5213 87.6552 28.9006C87.4698 29.2798 87.2099 29.5749 86.8754 29.7859C86.543 29.9968 86.1552 30.1023 85.712 30.1023ZM85.712 29.4247C86.0487 29.4247 86.3256 29.3384 86.543 29.1658C86.7603 28.9933 86.9212 28.7663 87.0256 28.4851C87.13 28.2038 87.1822 27.8991 87.1822 27.571C87.1822 27.2429 87.13 26.9371 87.0256 26.6538C86.9212 26.3704 86.7603 26.1413 86.543 25.9666C86.3256 25.7919 86.0487 25.7045 85.712 25.7045C85.3754 25.7045 85.0984 25.7919 84.881 25.9666C84.6637 26.1413 84.5028 26.3704 84.3984 26.6538C84.294 26.9371 84.2418 27.2429 84.2418 27.571C84.2418 27.8991 84.294 28.2038 84.3984 28.4851C84.5028 28.7663 84.6637 28.9933 84.881 29.1658C85.0984 29.3384 85.3754 29.4247 85.712 29.4247ZM89.8421 27.0469V30H89.0878V25.0909H89.8165V25.858H89.8804C89.9955 25.6087 90.1702 25.4084 90.4046 25.2571C90.6389 25.1037 90.9415 25.027 91.3122 25.027C91.6446 25.027 91.9355 25.0952 92.1847 25.2315C92.434 25.3658 92.6279 25.5703 92.7664 25.8452C92.9049 26.1179 92.9742 26.4631 92.9742 26.8807V30H92.2199V26.9318C92.2199 26.5462 92.1198 26.2457 91.9195 26.0305C91.7192 25.8132 91.4443 25.7045 91.0949 25.7045C90.8541 25.7045 90.6389 25.7567 90.4493 25.8612C90.2618 25.9656 90.1137 26.1179 90.0051 26.3182C89.8964 26.5185 89.8421 26.7614 89.8421 27.0469ZM97.8297 26.1903L97.1522 26.3821C97.1096 26.2692 97.0467 26.1594 96.9636 26.0529C96.8826 25.9442 96.7718 25.8548 96.6312 25.7844C96.4906 25.7141 96.3105 25.679 96.0911 25.679C95.7907 25.679 95.5403 25.7482 95.34 25.8867C95.1419 26.0231 95.0428 26.1967 95.0428 26.4077C95.0428 26.5952 95.111 26.7433 95.2473 26.8519C95.3837 26.9606 95.5968 27.0511 95.8865 27.1236L96.6152 27.3026C97.0542 27.4091 97.3812 27.5721 97.5964 27.7915C97.8116 28.0089 97.9192 28.2891 97.9192 28.6321C97.9192 28.9134 97.8382 29.1648 97.6763 29.3864C97.5165 29.608 97.2928 29.7827 97.0051 29.9105C96.7175 30.0384 96.383 30.1023 96.0016 30.1023C95.5009 30.1023 95.0865 29.9936 94.7583 29.7763C94.4302 29.5589 94.2225 29.2415 94.1351 28.8239L94.851 28.6449C94.9192 28.9091 95.0481 29.1072 95.2377 29.2393C95.4295 29.3714 95.6799 29.4375 95.9888 29.4375C96.3404 29.4375 96.6195 29.3629 96.8262 29.2138C97.035 29.0625 97.1394 28.8814 97.1394 28.6705C97.1394 28.5 97.0797 28.3572 96.9604 28.2422C96.8411 28.125 96.6578 28.0376 96.4107 27.9801L95.5925 27.7884C95.1429 27.6818 94.8127 27.5167 94.6017 27.293C94.3929 27.0671 94.2885 26.7848 94.2885 26.446C94.2885 26.169 94.3663 25.924 94.5218 25.7109C94.6795 25.4979 94.8936 25.3306 95.1642 25.2092C95.437 25.0877 95.7459 25.027 96.0911 25.027C96.5769 25.027 96.9583 25.1335 97.2353 25.3466C97.5144 25.5597 97.7125 25.8409 97.8297 26.1903ZM101.19 25.0909V25.7301H98.6455V25.0909H101.19ZM99.387 23.9148H100.141V28.5938C100.141 28.8068 100.172 28.9666 100.234 29.0732C100.298 29.1776 100.379 29.2479 100.477 29.2841C100.577 29.3182 100.682 29.3352 100.793 29.3352C100.876 29.3352 100.945 29.331 100.998 29.3224C101.051 29.3118 101.094 29.3033 101.126 29.2969L101.279 29.9744C101.228 29.9936 101.157 30.0128 101.065 30.032C100.973 30.0533 100.857 30.0639 100.717 30.0639C100.503 30.0639 100.295 30.0181 100.09 29.9265C99.8877 29.8349 99.7194 29.6953 99.5851 29.5078C99.453 29.3203 99.387 29.0838 99.387 28.7983V23.9148Z" fill="#1D9E75"/>
<path d="M78.6903 42V37.0909H79.419V37.8324H79.4702C79.5597 37.5895 79.7216 37.3924 79.956 37.2411C80.1903 37.0898 80.4545 37.0142 80.7486 37.0142C80.804 37.0142 80.8732 37.0153 80.9563 37.0174C81.0394 37.0195 81.1023 37.0227 81.1449 37.027V37.794C81.1193 37.7876 81.0607 37.7781 80.9691 37.7653C80.8796 37.7504 80.7848 37.7429 80.6847 37.7429C80.446 37.7429 80.233 37.793 80.0455 37.8931C79.8601 37.9911 79.7131 38.1275 79.6044 38.3022C79.4979 38.4748 79.4446 38.6719 79.4446 38.8935V42H78.6903ZM85.1327 39.9929V37.0909H85.887V42H85.1327V41.169H85.0816C84.9665 41.4183 84.7876 41.6303 84.5447 41.805C84.3018 41.9776 83.9949 42.0639 83.6242 42.0639C83.3174 42.0639 83.0447 41.9968 82.806 41.8626C82.5674 41.7262 82.3799 41.5217 82.2435 41.2489C82.1072 40.9741 82.039 40.6278 82.039 40.2102V37.0909H82.7932V40.1591C82.7932 40.517 82.8934 40.8026 83.0937 41.0156C83.2961 41.2287 83.5539 41.3352 83.8671 41.3352C84.0546 41.3352 84.2453 41.2873 84.4392 41.1914C84.6352 41.0955 84.7993 40.9485 84.9314 40.7504C85.0656 40.5522 85.1327 40.2997 85.1327 39.9929ZM88.0227 39.0469V42H87.2685V37.0909H87.9972V37.858H88.0611C88.1761 37.6087 88.3509 37.4084 88.5852 37.2571C88.8196 37.1037 89.1222 37.027 89.4929 37.027C89.8253 37.027 90.1161 37.0952 90.3654 37.2315C90.6147 37.3658 90.8086 37.5703 90.9471 37.8452C91.0856 38.1179 91.1548 38.4631 91.1548 38.8807V42H90.4006V38.9318C90.4006 38.5462 90.3004 38.2457 90.1001 38.0305C89.8999 37.8132 89.625 37.7045 89.2756 37.7045C89.0348 37.7045 88.8196 37.7567 88.63 37.8612C88.4425 37.9656 88.2944 38.1179 88.1857 38.3182C88.0771 38.5185 88.0227 38.7614 88.0227 39.0469ZM95.3712 38.8423V38.152H99.3087V38.8423H95.3712ZM95.3712 40.7344V40.044H99.3087V40.7344H95.3712Z" fill="#1D9E75"/>
<path d="M78.9588 51.2386C78.9588 50.4332 79.0632 49.6928 79.272 49.0174C79.483 48.3398 79.7834 47.7166 80.1733 47.1477H80.8381C80.6847 47.3587 80.5408 47.6186 80.4066 47.9276C80.2745 48.2344 80.1584 48.5721 80.0582 48.9407C79.9581 49.3072 79.8793 49.6864 79.8217 50.0785C79.7663 50.4705 79.7386 50.8572 79.7386 51.2386C79.7386 51.7457 79.7876 52.2603 79.8857 52.7823C79.9837 53.3043 80.1158 53.7891 80.282 54.2365C80.4482 54.6839 80.6335 55.0483 80.8381 55.3295H80.1733C79.7834 54.7607 79.483 54.1385 79.272 53.4631C79.0632 52.7855 78.9588 52.044 78.9588 51.2386ZM82.5136 49.0909L83.6897 51.098L84.8659 49.0909H85.7352L84.1499 51.5455L85.7352 54H84.8659L83.6897 52.0952L82.5136 54H81.6443L83.2039 51.5455L81.6443 49.0909H82.5136ZM88.4222 51.2386C88.4222 52.044 88.3168 52.7855 88.1058 53.4631C87.897 54.1385 87.5977 54.7607 87.2077 55.3295H86.543C86.6964 55.1186 86.8391 54.8587 86.9712 54.5497C87.1055 54.2429 87.2227 53.9062 87.3228 53.5398C87.4229 53.1712 87.5007 52.7908 87.5561 52.3988C87.6136 52.0046 87.6424 51.6179 87.6424 51.2386C87.6424 50.7315 87.5934 50.217 87.4954 49.695C87.3974 49.1729 87.2653 48.6882 87.0991 48.2408C86.9329 47.7933 86.7475 47.429 86.543 47.1477H87.2077C87.5977 47.7166 87.897 48.3398 88.1058 49.0174C88.3168 49.6928 88.4222 50.4332 88.4222 51.2386ZM96.7519 54L96.2597 53.5142L98.6375 51.1364L96.2597 48.7649L96.7519 48.2727L99.6155 51.1364L96.7519 54ZM93.0381 52.2486V51.5455H98.7334L98.0303 52.2486H93.0381ZM93.0381 50.7273V50.0241H98.0303L98.7334 50.7273H93.0381Z" fill="#1D9E75"/>
<path d="M80.6847 66.1023C80.2244 66.1023 79.8281 65.9936 79.4957 65.7763C79.1634 65.5589 78.9077 65.2596 78.7287 64.8782C78.5497 64.4968 78.4602 64.0611 78.4602 63.571C78.4602 63.0724 78.5518 62.6325 78.7351 62.2511C78.9205 61.8675 79.1783 61.5682 79.5085 61.353C79.8409 61.1357 80.2287 61.027 80.6719 61.027C81.017 61.027 81.3281 61.0909 81.6051 61.2188C81.8821 61.3466 82.109 61.5256 82.2859 61.7557C82.4627 61.9858 82.5724 62.2543 82.6151 62.5611H81.8608C81.8033 62.3374 81.6754 62.1392 81.4773 61.9666C81.2813 61.7919 81.017 61.7045 80.6847 61.7045C80.3906 61.7045 80.1328 61.7812 79.9112 61.9347C79.6918 62.0859 79.5202 62.3001 79.3967 62.5771C79.2752 62.8519 79.2145 63.1747 79.2145 63.5455C79.2145 63.9247 79.2741 64.255 79.3935 64.5362C79.5149 64.8175 79.6854 65.0359 79.9048 65.1914C80.1264 65.3469 80.3864 65.4247 80.6847 65.4247C80.8807 65.4247 81.0586 65.3906 81.2184 65.3224C81.3782 65.2543 81.5135 65.1562 81.6243 65.0284C81.7351 64.9006 81.8139 64.7472 81.8608 64.5682H82.6151C82.5724 64.858 82.467 65.119 82.2987 65.3512C82.1325 65.5813 81.9119 65.7646 81.6371 65.9009C81.3643 66.0352 81.0469 66.1023 80.6847 66.1023ZM84.4719 59.4545V66H83.7177V59.4545H84.4719ZM87.9117 66.1023C87.4387 66.1023 87.0306 65.9979 86.6876 65.7891C86.3467 65.5781 86.0835 65.2841 85.8982 64.907C85.7149 64.5277 85.6233 64.0866 85.6233 63.5838C85.6233 63.081 85.7149 62.6378 85.8982 62.2543C86.0835 61.8686 86.3414 61.5682 86.6716 61.353C87.004 61.1357 87.3918 61.027 87.835 61.027C88.0906 61.027 88.3431 61.0696 88.5924 61.1548C88.8417 61.2401 89.0686 61.3786 89.2732 61.5703C89.4777 61.7599 89.6407 62.0114 89.7622 62.3246C89.8836 62.6378 89.9443 63.0234 89.9443 63.4815V63.8011H86.1602V63.1491H89.1773C89.1773 62.8722 89.1219 62.625 89.0111 62.4077C88.9024 62.1903 88.7469 62.0188 88.5445 61.8931C88.3442 61.7674 88.1077 61.7045 87.835 61.7045C87.5345 61.7045 87.2746 61.7791 87.0551 61.9283C86.8378 62.0753 86.6705 62.267 86.5534 62.5036C86.4362 62.7401 86.3776 62.9936 86.3776 63.2642V63.6989C86.3776 64.0696 86.4415 64.3839 86.5693 64.6417C86.6993 64.8974 86.8794 65.0923 87.1095 65.2266C87.3396 65.3587 87.607 65.4247 87.9117 65.4247C88.1098 65.4247 88.2888 65.397 88.4486 65.3416C88.6105 65.2841 88.7501 65.1989 88.8673 65.0859C88.9845 64.9709 89.075 64.8281 89.1389 64.6577L89.8676 64.8622C89.7909 65.1094 89.662 65.3267 89.4809 65.5142C89.2998 65.6996 89.0761 65.8445 88.8097 65.9489C88.5434 66.0511 88.2441 66.1023 87.9117 66.1023ZM92.5363 66.1151C92.2252 66.1151 91.9429 66.0565 91.6894 65.9393C91.4358 65.82 91.2345 65.6484 91.0853 65.4247C90.9362 65.1989 90.8616 64.9261 90.8616 64.6065C90.8616 64.3253 90.917 64.0973 91.0278 63.9226C91.1386 63.7457 91.2867 63.6072 91.472 63.5071C91.6574 63.407 91.8619 63.3324 92.0857 63.2834C92.3115 63.2322 92.5384 63.1918 92.7664 63.1619C93.0647 63.1236 93.3066 63.0948 93.4919 63.0756C93.6794 63.0543 93.8158 63.0192 93.901 62.9702C93.9884 62.9212 94.032 62.8359 94.032 62.7145V62.6889C94.032 62.3736 93.9458 62.1286 93.7732 61.9538C93.6027 61.7791 93.3438 61.6918 92.9965 61.6918C92.6365 61.6918 92.3541 61.7706 92.1496 61.9283C91.945 62.0859 91.8012 62.2543 91.7181 62.4332L91.0022 62.1776C91.1301 61.8793 91.3005 61.647 91.5136 61.4808C91.7288 61.3125 91.9632 61.1953 92.2167 61.1293C92.4724 61.0611 92.7238 61.027 92.971 61.027C93.1286 61.027 93.3097 61.0462 93.5143 61.0845C93.721 61.1207 93.9202 61.1964 94.1119 61.3114C94.3058 61.4265 94.4667 61.6001 94.5945 61.8324C94.7224 62.0646 94.7863 62.3757 94.7863 62.7656V66H94.032V65.3352H93.9937C93.9426 65.4418 93.8573 65.5558 93.738 65.6772C93.6187 65.7987 93.46 65.902 93.2618 65.9872C93.0637 66.0724 92.8218 66.1151 92.5363 66.1151ZM92.6514 65.4375C92.9497 65.4375 93.2011 65.3789 93.4056 65.2617C93.6123 65.1445 93.7678 64.9933 93.8722 64.8079C93.9788 64.6225 94.032 64.4276 94.032 64.223V63.5327C94.0001 63.571 93.9298 63.6062 93.8211 63.6381C93.7146 63.668 93.591 63.6946 93.4504 63.718C93.3119 63.7393 93.1766 63.7585 93.0445 63.7756C92.9145 63.7905 92.809 63.8033 92.7281 63.8139C92.532 63.8395 92.3488 63.881 92.1784 63.9386C92.01 63.994 91.8737 64.0781 91.7693 64.1911C91.667 64.3018 91.6159 64.4531 91.6159 64.6449C91.6159 64.907 91.7128 65.1051 91.9067 65.2393C92.1027 65.3714 92.3509 65.4375 92.6514 65.4375ZM96.9173 63.0469V66H96.163V61.0909H96.8917V61.858H96.9556C97.0707 61.6087 97.2454 61.4084 97.4798 61.2571C97.7141 61.1037 98.0167 61.027 98.3874 61.027C98.7198 61.027 99.0107 61.0952 99.2599 61.2315C99.5092 61.3658 99.7031 61.5703 99.8416 61.8452C99.9801 62.1179 100.049 62.4631 100.049 62.8807V66H99.2951V62.9318C99.2951 62.5462 99.195 62.2457 98.9947 62.0305C98.7944 61.8132 98.5195 61.7045 98.1701 61.7045C97.9293 61.7045 97.7141 61.7567 97.5245 61.8612C97.337 61.9656 97.1889 62.1179 97.0803 62.3182C96.9716 62.5185 96.9173 62.7614 96.9173 63.0469ZM101.696 63.2386C101.696 62.4332 101.801 61.6928 102.009 61.0174C102.22 60.3398 102.521 59.7166 102.911 59.1477H103.575C103.422 59.3587 103.278 59.6186 103.144 59.9276C103.012 60.2344 102.896 60.5721 102.796 60.9407C102.695 61.3072 102.617 61.6864 102.559 62.0785C102.504 62.4705 102.476 62.8572 102.476 63.2386C102.476 63.7457 102.525 64.2603 102.623 64.7823C102.721 65.3043 102.853 65.7891 103.019 66.2365C103.185 66.6839 103.371 67.0483 103.575 67.3295H102.911C102.521 66.7607 102.22 66.1385 102.009 65.4631C101.801 64.7855 101.696 64.044 101.696 63.2386ZM105.251 61.0909L106.427 63.098L107.603 61.0909H108.472L106.887 63.5455L108.472 66H107.603L106.427 64.0952L105.251 66H104.382L105.941 63.5455L104.382 61.0909H105.251ZM111.16 63.2386C111.16 64.044 111.054 64.7855 110.843 65.4631C110.634 66.1385 110.335 66.7607 109.945 67.3295H109.28C109.434 67.1186 109.576 66.8587 109.709 66.5497C109.843 66.2429 109.96 65.9062 110.06 65.5398C110.16 65.1712 110.238 64.7908 110.293 64.3988C110.351 64.0046 110.38 63.6179 110.38 63.2386C110.38 62.7315 110.331 62.217 110.233 61.695C110.135 61.1729 110.003 60.6882 109.836 60.2408C109.67 59.7933 109.485 59.429 109.28 59.1477H109.945C110.335 59.7166 110.634 60.3398 110.843 61.0174C111.054 61.6928 111.16 62.4332 111.16 63.2386Z" fill="#1D9E75"/>
<path d="M81 84L87 91.5L99 78" stroke="#1D9E75" stroke-width="2.7" stroke-linecap="round" stroke-linejoin="round"/>
</g>
<defs>
<clipPath id="clip0_6601_280">
<rect width="120" height="120" fill="white"/>
</clipPath>
</defs>
</svg>
