<svg width="120" height="120" viewBox="0 0 120 120" fill="none" xmlns="http://www.w3.org/2000/svg">
<g clip-path="url(#clip0_6601_356)">
<path d="M105 0H15C6.71573 0 0 6.71573 0 15V105C0 113.284 6.71573 120 15 120H105C113.284 120 120 113.284 120 105V15C120 6.71573 113.284 0 105 0Z" fill="#0D1F1A"/>
<path opacity="0.4" d="M15 75H105" stroke="#0F6E56" stroke-width="1.5"/>
<path d="M27 81C30.3137 81 33 78.3137 33 75C33 71.6863 30.3137 69 27 69C23.6863 69 21 71.6863 21 75C21 78.3137 23.6863 81 27 81Z" fill="#0F6E56" stroke="#1D9E75" stroke-width="2.25"/>
<path d="M60 81C63.3137 81 66 78.3137 66 75C66 71.6863 63.3137 69 60 69C56.6863 69 54 71.6863 54 75C54 78.3137 56.6863 81 60 81Z" fill="#0F6E56" stroke="#1D9E75" stroke-width="2.25"/>
<path d="M93 82.5C97.1421 82.5 100.5 79.1421 100.5 75C100.5 70.8579 97.1421 67.5 93 67.5C88.8579 67.5 85.5 70.8579 85.5 75C85.5 79.1421 88.8579 82.5 93 82.5Z" fill="#1D9E75"/>
<path d="M18.3135 56.0547V59.5H17.4336V53.7727H18.2837V54.6676H18.3583C18.4925 54.3768 18.6964 54.1431 18.9698 53.9666C19.2432 53.7876 19.5962 53.6982 20.0287 53.6982C20.4165 53.6982 20.7558 53.7777 21.0467 53.9368C21.3375 54.0934 21.5637 54.332 21.7253 54.6527C21.8869 54.9709 21.9677 55.3736 21.9677 55.8608V59.5H21.0877V55.9205C21.0877 55.4705 20.9709 55.12 20.7372 54.869C20.5035 54.6154 20.1829 54.4886 19.7752 54.4886C19.4943 54.4886 19.2432 54.5495 19.022 54.6713C18.8032 54.7931 18.6305 54.9709 18.5037 55.2045C18.3769 55.4382 18.3135 55.7216 18.3135 56.0547ZM25.9024 59.6193C25.3853 59.6193 24.9317 59.4963 24.5414 59.2502C24.1536 59.0041 23.8503 58.6598 23.6316 58.2173C23.4153 57.7749 23.3072 57.2578 23.3072 56.6662C23.3072 56.0696 23.4153 55.5488 23.6316 55.1039C23.8503 54.6589 24.1536 54.3134 24.5414 54.0673C24.9317 53.8212 25.3853 53.6982 25.9024 53.6982C26.4194 53.6982 26.8718 53.8212 27.2596 54.0673C27.6499 54.3134 27.9531 54.6589 28.1694 55.1039C28.3882 55.5488 28.4975 56.0696 28.4975 56.6662C28.4975 57.2578 28.3882 57.7749 28.1694 58.2173C27.9531 58.6598 27.6499 59.0041 27.2596 59.2502C26.8718 59.4963 26.4194 59.6193 25.9024 59.6193ZM25.9024 58.8288C26.2951 58.8288 26.6183 58.7282 26.8718 58.5268C27.1254 58.3255 27.3131 58.0607 27.4349 57.7326C27.5567 57.4045 27.6176 57.049 27.6176 56.6662C27.6176 56.2834 27.5567 55.9267 27.4349 55.5961C27.3131 55.2654 27.1254 54.9982 26.8718 54.7944C26.6183 54.5906 26.2951 54.4886 25.9024 54.4886C25.5096 54.4886 25.1865 54.5906 24.9329 54.7944C24.6794 54.9982 24.4917 55.2654 24.3699 55.5961C24.2481 55.9267 24.1872 56.2834 24.1872 56.6662C24.1872 57.049 24.2481 57.4045 24.3699 57.7326C24.4917 58.0607 24.6794 58.3255 24.9329 58.5268C25.1865 58.7282 25.5096 58.8288 25.9024 58.8288ZM30.9436 59.5L29.1985 53.7727H30.1232L31.3612 58.1577H31.4208L32.6438 53.7727H33.5835L34.7916 58.1428H34.8512L36.0892 53.7727H37.0139L35.2688 59.5H34.4038L33.1509 55.1001H33.0615L31.8086 59.5H30.9436Z" fill="#1D9E75"/>
<path d="M57.3829 53.7727V54.5185H54.2956V53.7727H57.3829ZM55.2203 59.5V52.9822C55.2203 52.6541 55.2973 52.3807 55.4515 52.1619C55.6056 51.9432 55.8057 51.7791 56.0518 51.6697C56.2979 51.5604 56.5576 51.5057 56.8311 51.5057C57.0473 51.5057 57.2238 51.5231 57.3606 51.5579C57.4973 51.5927 57.5992 51.625 57.6663 51.6548L57.4128 52.4155C57.368 52.4006 57.3059 52.3819 57.2263 52.3596C57.1493 52.3372 57.0473 52.326 56.9206 52.326C56.6297 52.326 56.4197 52.3993 56.2904 52.546C56.1636 52.6926 56.1003 52.9077 56.1003 53.1911V59.5H55.2203ZM58.6162 59.5V53.7727H59.4962V59.5H58.6162ZM59.0636 52.8182C58.8921 52.8182 58.7442 52.7598 58.6199 52.6429C58.4981 52.5261 58.4372 52.3857 58.4372 52.2216C58.4372 52.0575 58.4981 51.9171 58.6199 51.8002C58.7442 51.6834 58.8921 51.625 59.0636 51.625C59.2352 51.625 59.3818 51.6834 59.5036 51.8002C59.6279 51.9171 59.6901 52.0575 59.6901 52.2216C59.6901 52.3857 59.6279 52.5261 59.5036 52.6429C59.3818 52.7598 59.2352 52.8182 59.0636 52.8182ZM61.7641 53.7727L63.1363 56.1143L64.5085 53.7727H65.5227L63.6732 56.6364L65.5227 59.5H64.5085L63.1363 57.2777L61.7641 59.5H60.7499L62.5695 56.6364L60.7499 53.7727H61.7641Z" fill="#1D9E75"/>
<path d="M84.4269 55.0554L83.6364 55.2791C83.5867 55.1474 83.5134 55.0194 83.4164 54.8951C83.322 54.7683 83.1927 54.6639 83.0287 54.5819C82.8646 54.4998 82.6545 54.4588 82.3985 54.4588C82.048 54.4588 81.7559 54.5396 81.5223 54.7012C81.2911 54.8603 81.1755 55.0629 81.1755 55.3089C81.1755 55.5277 81.255 55.7005 81.4141 55.8272C81.5732 55.954 81.8218 56.0597 82.1599 56.1442L83.01 56.353C83.5221 56.4773 83.9037 56.6674 84.1547 56.9235C84.4058 57.177 84.5313 57.5039 84.5313 57.9041C84.5313 58.2322 84.4369 58.5256 84.2479 58.7841C84.0615 59.0426 83.8005 59.2464 83.4649 59.3956C83.1293 59.5447 82.7391 59.6193 82.2941 59.6193C81.7099 59.6193 81.2265 59.4925 80.8436 59.239C80.4608 58.9854 80.2185 58.6151 80.1165 58.1278L80.9518 57.919C81.0313 58.2273 81.1817 58.4585 81.4029 58.6126C81.6267 58.7667 81.9187 58.8438 82.2792 58.8438C82.6893 58.8438 83.015 58.7567 83.2561 58.5827C83.4997 58.4062 83.6215 58.195 83.6215 57.9489C83.6215 57.75 83.5519 57.5835 83.4127 57.4492C83.2735 57.3125 83.0597 57.2106 82.7714 57.1435L81.8168 56.9197C81.2923 56.7955 80.907 56.6028 80.6609 56.3418C80.4173 56.0783 80.2955 55.7489 80.2955 55.3537C80.2955 55.0305 80.3863 54.7447 80.5677 54.4961C80.7517 54.2475 81.0015 54.0524 81.3172 53.9107C81.6354 53.769 81.9958 53.6982 82.3985 53.6982C82.9653 53.6982 83.4102 53.8224 83.7334 54.071C84.059 54.3196 84.2902 54.6477 84.4269 55.0554ZM88.1826 59.6193C87.6457 59.6193 87.1833 59.4925 86.7956 59.239C86.4078 58.9854 86.1095 58.6362 85.9007 58.1912C85.6919 57.7463 85.5875 57.2379 85.5875 56.6662C85.5875 56.0845 85.6944 55.5712 85.9081 55.1262C86.1244 54.6788 86.4252 54.3295 86.8105 54.0785C87.1983 53.8249 87.6507 53.6982 88.1677 53.6982C88.5704 53.6982 88.9333 53.7727 89.2565 53.9219C89.5797 54.071 89.8444 54.2798 90.0507 54.5483C90.257 54.8168 90.3851 55.13 90.4348 55.4879H89.5548C89.4877 55.2269 89.3385 54.9957 89.1074 54.7944C88.8787 54.5906 88.5704 54.4886 88.1826 54.4886C87.8396 54.4886 87.5388 54.5781 87.2803 54.7571C87.0243 54.9336 86.8242 55.1834 86.68 55.5066C86.5383 55.8272 86.4674 56.2038 86.4674 56.6364C86.4674 57.0788 86.537 57.4641 86.6762 57.7923C86.8179 58.1204 87.0168 58.3752 87.2728 58.5566C87.5314 58.7381 87.8346 58.8288 88.1826 58.8288C88.4113 58.8288 88.6189 58.7891 88.8053 58.7095C88.9918 58.63 89.1496 58.5156 89.2789 58.3665C89.4081 58.2173 89.5001 58.0384 89.5548 57.8295H90.4348C90.3851 58.1676 90.262 58.4721 90.0656 58.7431C89.8717 59.0115 89.6145 59.2253 89.2938 59.3844C88.9756 59.541 88.6052 59.6193 88.1826 59.6193ZM93.4065 59.6342C93.0436 59.6342 92.7142 59.5659 92.4184 59.4292C92.1226 59.29 91.8877 59.0898 91.7137 58.8288C91.5397 58.5653 91.4527 58.2472 91.4527 57.8743C91.4527 57.5462 91.5173 57.2802 91.6466 57.0763C91.7759 56.87 91.9486 56.7085 92.1649 56.5916C92.3811 56.4748 92.6198 56.3878 92.8808 56.3306C93.1443 56.271 93.409 56.2237 93.675 56.1889C94.023 56.1442 94.3052 56.1106 94.5214 56.0882C94.7402 56.0634 94.8993 56.0224 94.9987 55.9652C95.1006 55.908 95.1516 55.8086 95.1516 55.6669V55.6371C95.1516 55.2692 95.0509 54.9833 94.8495 54.7795C94.6507 54.5756 94.3487 54.4737 93.9435 54.4737C93.5234 54.4737 93.194 54.5657 92.9554 54.7496C92.7167 54.9336 92.5489 55.13 92.452 55.3388L91.6168 55.0405C91.7659 54.6925 91.9648 54.4215 92.2134 54.2276C92.4644 54.0312 92.7379 53.8945 93.0337 53.8175C93.332 53.7379 93.6253 53.6982 93.9136 53.6982C94.0976 53.6982 94.3089 53.7205 94.5475 53.7653C94.7886 53.8075 95.0211 53.8958 95.2448 54.03C95.471 54.1642 95.6587 54.3668 95.8078 54.6378C95.957 54.9087 96.0315 55.2717 96.0315 55.7266V59.5H95.1516V58.7244H95.1068C95.0472 58.8487 94.9477 58.9817 94.8085 59.1234C94.6693 59.2651 94.4841 59.3857 94.253 59.4851C94.0218 59.5845 93.7396 59.6342 93.4065 59.6342ZM93.5408 58.8438C93.8888 58.8438 94.1821 58.7754 94.4207 58.6387C94.6619 58.502 94.8433 58.3255 94.9651 58.1092C95.0894 57.8929 95.1516 57.6655 95.1516 57.4268V56.6214C95.1143 56.6662 95.0322 56.7072 94.9055 56.7445C94.7812 56.7793 94.637 56.8104 94.4729 56.8377C94.3114 56.8626 94.1535 56.8849 93.9994 56.9048C93.8478 56.9222 93.7247 56.9371 93.6303 56.9496C93.4016 56.9794 93.1878 57.0279 92.9889 57.095C92.7925 57.1596 92.6335 57.2578 92.5117 57.3896C92.3923 57.5188 92.3327 57.6953 92.3327 57.919C92.3327 58.2248 92.4458 58.456 92.672 58.6126C92.9007 58.7667 93.1903 58.8438 93.5408 58.8438ZM98.5176 51.8636V59.5H97.6377V51.8636H98.5176ZM102.531 59.6193C101.979 59.6193 101.503 59.4975 101.103 59.2539C100.705 59.0078 100.398 58.6648 100.182 58.2248C99.9678 57.7823 99.8609 57.2678 99.8609 56.6811C99.8609 56.0945 99.9678 55.5774 100.182 55.13C100.398 54.68 100.699 54.3295 101.084 54.0785C101.472 53.8249 101.924 53.6982 102.441 53.6982C102.739 53.6982 103.034 53.7479 103.325 53.8473C103.616 53.9467 103.88 54.1083 104.119 54.332C104.358 54.5533 104.548 54.8466 104.69 55.212C104.831 55.5774 104.902 56.0273 104.902 56.5618V56.9347H100.487V56.174H104.007C104.007 55.8509 103.943 55.5625 103.813 55.3089C103.687 55.0554 103.505 54.8553 103.269 54.7086C103.035 54.562 102.759 54.4886 102.441 54.4886C102.091 54.4886 101.787 54.5756 101.531 54.7496C101.278 54.9212 101.083 55.1449 100.946 55.4208C100.809 55.6967 100.741 55.9925 100.741 56.3082V56.8153C100.741 57.2479 100.815 57.6145 100.965 57.9153C101.116 58.2136 101.326 58.4411 101.595 58.5977C101.863 58.7518 102.175 58.8288 102.531 58.8288C102.762 58.8288 102.971 58.7965 103.157 58.7319C103.346 58.6648 103.509 58.5653 103.646 58.4336C103.782 58.2994 103.888 58.1328 103.962 57.9339L104.813 58.1726C104.723 58.4609 104.573 58.7145 104.361 58.9332C104.15 59.1495 103.889 59.3185 103.578 59.4403C103.268 59.5597 102.918 59.6193 102.531 59.6193Z" fill="#1D9E75"/>
<path d="M36 94.5C54 94.5 84 84 102 67.5" stroke="#1D9E75" stroke-width="2.25" stroke-linecap="round" stroke-dasharray="4.5 3"/>
</g>
<defs>
<clipPath id="clip0_6601_356">
<rect width="120" height="120" fill="white"/>
</clipPath>
</defs>
</svg>
