<svg width="120" height="120" viewBox="0 0 120 120" fill="none" xmlns="http://www.w3.org/2000/svg">
<g clip-path="url(#clip0_6601_198)">
<path d="M105 0H15C6.71573 0 0 6.71573 0 15V105C0 113.284 6.71573 120 15 120H105C113.284 120 120 113.284 120 105V15C120 6.71573 113.284 0 105 0Z" fill="#0D1F1A"/>
<path opacity="0.5" d="M30.5 14H17C15.3431 14 14 15.3431 14 17V30.5C14 32.1569 15.3431 33.5 17 33.5H30.5C32.1569 33.5 33.5 32.1569 33.5 30.5V17C33.5 15.3431 32.1569 14 30.5 14Z" fill="#0D2E25" stroke="#0F6E56" stroke-width="1.5"/>
<path opacity="0.5" d="M54.5 14H41C39.3431 14 38 15.3431 38 17V30.5C38 32.1569 39.3431 33.5 41 33.5H54.5C56.1569 33.5 57.5 32.1569 57.5 30.5V17C57.5 15.3431 56.1569 14 54.5 14Z" fill="#0D2E25" stroke="#0F6E56" stroke-width="1.5"/>
<path opacity="0.5" d="M78.5 14H65C63.3431 14 62 15.3431 62 17V30.5C62 32.1569 63.3431 33.5 65 33.5H78.5C80.1569 33.5 81.5 32.1569 81.5 30.5V17C81.5 15.3431 80.1569 14 78.5 14Z" fill="#0D2E25" stroke="#0F6E56" stroke-width="1.5"/>
<path opacity="0.5" d="M102.5 14H89C87.3431 14 86 15.3431 86 17V30.5C86 32.1569 87.3431 33.5 89 33.5H102.5C104.157 33.5 105.5 32.1569 105.5 30.5V17C105.5 15.3431 104.157 14 102.5 14Z" fill="#0D2E25" stroke="#0F6E56" stroke-width="1.5"/>
<path opacity="0.5" d="M30.5 38H17C15.3431 38 14 39.3431 14 41V54.5C14 56.1569 15.3431 57.5 17 57.5H30.5C32.1569 57.5 33.5 56.1569 33.5 54.5V41C33.5 39.3431 32.1569 38 30.5 38Z" fill="#0D2E25" stroke="#0F6E56" stroke-width="1.5"/>
<path d="M54.5 38H41C39.3431 38 38 39.3431 38 41V54.5C38 56.1569 39.3431 57.5 41 57.5H54.5C56.1569 57.5 57.5 56.1569 57.5 54.5V41C57.5 39.3431 56.1569 38 54.5 38Z" fill="#0D261F" stroke="#00B393" stroke-width="2.7"/>
<path d="M48.6526 42.6818L48.5567 49.7386H47.4445L47.3486 42.6818H48.6526ZM48.0006 52.5767C47.7641 52.5767 47.5611 52.492 47.3918 52.3226C47.2224 52.1532 47.1377 51.9503 47.1377 51.7138C47.1377 51.4773 47.2224 51.2743 47.3918 51.1049C47.5611 50.9355 47.7641 50.8509 48.0006 50.8509C48.2371 50.8509 48.4401 50.9355 48.6094 51.1049C48.7788 51.2743 48.8635 51.4773 48.8635 51.7138C48.8635 51.8704 48.8236 52.0142 48.7437 52.1452C48.667 52.2763 48.5631 52.3817 48.4321 52.4616C48.3042 52.5384 48.1604 52.5767 48.0006 52.5767Z" fill="#00B393"/>
<path opacity="0.5" d="M78.5 38H65C63.3431 38 62 39.3431 62 41V54.5C62 56.1569 63.3431 57.5 65 57.5H78.5C80.1569 57.5 81.5 56.1569 81.5 54.5V41C81.5 39.3431 80.1569 38 78.5 38Z" fill="#0D2E25" stroke="#0F6E56" stroke-width="1.5"/>
<path opacity="0.5" d="M102.5 38H89C87.3431 38 86 39.3431 86 41V54.5C86 56.1569 87.3431 57.5 89 57.5H102.5C104.157 57.5 105.5 56.1569 105.5 54.5V41C105.5 39.3431 104.157 38 102.5 38Z" fill="#0D2E25" stroke="#0F6E56" stroke-width="1.5"/>
<path opacity="0.5" d="M30.5 62H17C15.3431 62 14 63.3431 14 65V78.5C14 80.1569 15.3431 81.5 17 81.5H30.5C32.1569 81.5 33.5 80.1569 33.5 78.5V65C33.5 63.3431 32.1569 62 30.5 62Z" fill="#0D2E25" stroke="#0F6E56" stroke-width="1.5"/>
<path opacity="0.5" d="M54.5 62H41C39.3431 62 38 63.3431 38 65V78.5C38 80.1569 39.3431 81.5 41 81.5H54.5C56.1569 81.5 57.5 80.1569 57.5 78.5V65C57.5 63.3431 56.1569 62 54.5 62Z" fill="#0D2E25" stroke="#0F6E56" stroke-width="1.5"/>
<path opacity="0.5" d="M78.5 62H65C63.3431 62 62 63.3431 62 65V78.5C62 80.1569 63.3431 81.5 65 81.5H78.5C80.1569 81.5 81.5 80.1569 81.5 78.5V65C81.5 63.3431 80.1569 62 78.5 62Z" fill="#0D2E25" stroke="#0F6E56" stroke-width="1.5"/>
<path opacity="0.5" d="M102.5 62H89C87.3431 62 86 63.3431 86 65V78.5C86 80.1569 87.3431 81.5 89 81.5H102.5C104.157 81.5 105.5 80.1569 105.5 78.5V65C105.5 63.3431 104.157 62 102.5 62Z" fill="#0D2E25" stroke="#0F6E56" stroke-width="1.5"/>
<path opacity="0.4" d="M30.5 86H17C15.3431 86 14 87.3431 14 89V102.5C14 104.157 15.3431 105.5 17 105.5H30.5C32.1569 105.5 33.5 104.157 33.5 102.5V89C33.5 87.3431 32.1569 86 30.5 86Z" fill="#0D2E25" stroke="#0F6E56" stroke-width="1.5"/>
<path opacity="0.4" d="M54.5 86H41C39.3431 86 38 87.3431 38 89V102.5C38 104.157 39.3431 105.5 41 105.5H54.5C56.1569 105.5 57.5 104.157 57.5 102.5V89C57.5 87.3431 56.1569 86 54.5 86Z" fill="#0D2E25" stroke="#0F6E56" stroke-width="1.5"/>
<path opacity="0.4" d="M78.5 86H65C63.3431 86 62 87.3431 62 89V102.5C62 104.157 63.3431 105.5 65 105.5H78.5C80.1569 105.5 81.5 104.157 81.5 102.5V89C81.5 87.3431 80.1569 86 78.5 86Z" fill="#0D2E25" stroke="#0F6E56" stroke-width="1.5"/>
<path opacity="0.4" d="M102.5 86H89C87.3431 86 86 87.3431 86 89V102.5C86 104.157 87.3431 105.5 89 105.5H102.5C104.157 105.5 105.5 104.157 105.5 102.5V89C105.5 87.3431 104.157 86 102.5 86Z" fill="#0D2E25" stroke="#0F6E56" stroke-width="1.5"/>
<path d="M56 35H39.5C37.0147 35 35 37.0147 35 39.5V56C35 58.4853 37.0147 60.5 39.5 60.5H56C58.4853 60.5 60.5 58.4853 60.5 56V39.5C60.5 37.0147 58.4853 35 56 35Z" stroke="#00B393"/>
<path d="M57.5 32H38C34.6863 32 32 34.6863 32 38V57.5C32 60.8137 34.6863 63.5 38 63.5H57.5C60.8137 63.5 63.5 60.8137 63.5 57.5V38C63.5 34.6863 60.8137 32 57.5 32Z" stroke="#00B393"/>
</g>
<defs>
<clipPath id="clip0_6601_198">
<rect width="120" height="120" fill="white"/>
</clipPath>
</defs>
</svg>
