<svg width="120" height="120" viewBox="0 0 120 120" fill="none" xmlns="http://www.w3.org/2000/svg">
<g clip-path="url(#clip0_6601_255)">
<path d="M105 0H15C6.71573 0 0 6.71573 0 15V105C0 113.284 6.71573 120 15 120H105C113.284 120 120 113.284 120 105V15C120 6.71573 113.284 0 105 0Z" fill="#0D1F1A"/>
<path d="M73.5 45H46.5C44.0147 45 42 47.0147 42 49.5V70.5C42 72.9853 44.0147 75 46.5 75H73.5C75.9853 75 78 72.9853 78 70.5V49.5C78 47.0147 75.9853 45 73.5 45Z" fill="#0D2E25" stroke="#1D9E75" stroke-width="2.25"/>
<path opacity="0.6" d="M42 55.5H78" stroke="#1D9E75" stroke-width="1.5"/>
<path opacity="0.4" d="M48 64.5H72" stroke="#1D9E75" stroke-width="1.5"/>
<path d="M78 54L93 39" stroke="#1D9E75" stroke-width="2.25" stroke-linecap="round"/>
<path d="M97.5 40.5C100.814 40.5 103.5 37.8137 103.5 34.5C103.5 31.1863 100.814 28.5 97.5 28.5C94.1863 28.5 91.5 31.1863 91.5 34.5C91.5 37.8137 94.1863 40.5 97.5 40.5Z" fill="#1D9E75"/>
<path d="M98.8726 30.8636V38.5H97.2581V32.3961H97.2134L95.4646 33.4924V32.0605L97.355 30.8636H98.8726Z" fill="#0D1F1A"/>
<path d="M78 60H93" stroke="#1D9E75" stroke-width="2.25" stroke-linecap="round"/>
<path d="M97.5 66C100.814 66 103.5 63.3137 103.5 60C103.5 56.6863 100.814 54 97.5 54C94.1863 54 91.5 56.6863 91.5 60C91.5 63.3137 94.1863 66 97.5 66Z" fill="#0F6E56" stroke="#1D9E75" stroke-width="1.5"/>
<path d="M94.8618 64V63.3288L97.3824 60.5696C97.6782 60.2464 97.9218 59.9656 98.1132 59.7269C98.3046 59.4858 98.4463 59.2596 98.5383 59.0483C98.6327 58.8345 98.68 58.6108 98.68 58.3771C98.68 58.1087 98.6153 57.8762 98.4861 57.6799C98.3593 57.4835 98.1853 57.3319 97.964 57.225C97.7428 57.1181 97.4942 57.0646 97.2183 57.0646C96.925 57.0646 96.6689 57.1255 96.4502 57.2473C96.2339 57.3667 96.0661 57.5344 95.9468 57.7507C95.83 57.967 95.7716 58.2205 95.7716 58.5114H94.8916C94.8916 58.0639 94.9948 57.6712 95.2011 57.3331C95.4074 56.995 95.6883 56.7315 96.0438 56.5426C96.4017 56.3537 96.8032 56.2592 97.2481 56.2592C97.6956 56.2592 98.0921 56.3537 98.4376 56.5426C98.7831 56.7315 99.0541 56.9863 99.2504 57.307C99.4468 57.6277 99.545 57.9844 99.545 58.3771C99.545 58.658 99.4941 58.9327 99.3921 59.2012C99.2927 59.4672 99.1187 59.7642 98.8701 60.0923C98.624 60.418 98.2822 60.8157 97.8447 61.2855L96.1295 63.12V63.1797H99.6792V64H94.8618Z" fill="#1D9E75"/>
<path opacity="0.4" d="M78 66L93 81" stroke="#0F6E56" stroke-width="2.25" stroke-linecap="round"/>
<path opacity="0.4" d="M97.5 91.5C100.814 91.5 103.5 88.8137 103.5 85.5C103.5 82.1863 100.814 79.5 97.5 79.5C94.1863 79.5 91.5 82.1863 91.5 85.5C91.5 88.8137 94.1863 91.5 97.5 91.5Z" stroke="#0F6E56" stroke-width="1.5"/>
<path d="M97.278 89.6044C96.7858 89.6044 96.347 89.5199 95.9617 89.3509C95.5789 89.1818 95.2744 88.9469 95.0482 88.6461C94.8245 88.3429 94.7027 87.9911 94.6828 87.5909H95.6224C95.6423 87.837 95.7268 88.0495 95.876 88.2285C96.0251 88.405 96.2203 88.5417 96.4614 88.6387C96.7025 88.7356 96.9697 88.7841 97.2631 88.7841C97.5912 88.7841 97.882 88.7269 98.1356 88.6126C98.3891 88.4982 98.588 88.3391 98.7322 88.1353C98.8763 87.9315 98.9484 87.6953 98.9484 87.4268C98.9484 87.146 98.8788 86.8986 98.7396 86.6848C98.6004 86.4686 98.3966 86.2995 98.1281 86.1777C97.8596 86.0559 97.5315 85.995 97.1437 85.995H96.5322V85.1747H97.1437C97.447 85.1747 97.713 85.12 97.9417 85.0107C98.1729 84.9013 98.3531 84.7472 98.4823 84.5483C98.6141 84.3494 98.68 84.1158 98.68 83.8473C98.68 83.5888 98.6228 83.3638 98.5084 83.1724C98.3941 82.981 98.2325 82.8319 98.0237 82.725C97.8174 82.6181 97.5738 82.5646 97.2929 82.5646C97.0294 82.5646 96.7808 82.6131 96.5471 82.71C96.316 82.8045 96.127 82.9425 95.9804 83.1239C95.8337 83.3029 95.7542 83.5192 95.7417 83.7727H94.8469C94.8618 83.3725 94.9823 83.022 95.2085 82.7212C95.4347 82.418 95.7306 82.1818 96.096 82.0128C96.4639 81.8437 96.8678 81.7592 97.3078 81.7592C97.7801 81.7592 98.1853 81.8549 98.5233 82.0463C98.8614 82.2353 99.1212 82.4851 99.3026 82.7958C99.4841 83.1065 99.5748 83.4421 99.5748 83.8026C99.5748 84.2326 99.4617 84.5993 99.2355 84.9025C99.0118 85.2058 98.7073 85.4158 98.322 85.5327V85.5923C98.8042 85.6719 99.1808 85.877 99.4518 86.2076C99.7227 86.5357 99.8582 86.9421 99.8582 87.4268C99.8582 87.842 99.7451 88.2148 99.5189 88.5455C99.2952 88.8736 98.9894 89.1321 98.6017 89.321C98.2139 89.5099 97.7726 89.6044 97.278 89.6044Z" fill="#0F6E56"/>
<path opacity="0.6" d="M15 60H36" stroke="#0F6E56" stroke-width="2.25" stroke-linecap="round"/>
</g>
<defs>
<clipPath id="clip0_6601_255">
<rect width="120" height="120" fill="white"/>
</clipPath>
</defs>
</svg>
