<svg width="120" height="120" viewBox="0 0 120 120" fill="none" xmlns="http://www.w3.org/2000/svg">
<g clip-path="url(#clip0_6601_573)">
<path d="M105 0H15C6.71573 0 0 6.71573 0 15V105C0 113.284 6.71573 120 15 120H105C113.284 120 120 113.284 120 105V15C120 6.71573 113.284 0 105 0Z" fill="#0D1F1A"/>
<path opacity="0.5" d="M12 37.5L21 27L30 48L39 33L48 42" stroke="#0F6E56" stroke-width="2.25" stroke-linecap="round" stroke-linejoin="round"/>
<path opacity="0.5" d="M12 60L21 52.5L30 67.5L39 49.5L48 60" stroke="#0F6E56" stroke-width="2.25" stroke-linecap="round" stroke-linejoin="round"/>
<path opacity="0.5" d="M12 82.5L21 75L30 90L39 72L48 82.5" stroke="#0F6E56" stroke-width="2.25" stroke-linecap="round" stroke-linejoin="round"/>
<path opacity="0.4" d="M63 30H57C55.3431 30 54 31.3431 54 33V87C54 88.6569 55.3431 90 57 90H63C64.6569 90 66 88.6569 66 87V33C66 31.3431 64.6569 30 63 30Z" fill="#0F6E56"/>
<path d="M54 60H66" stroke="#1D9E75" stroke-width="3"/>
<path d="M72 60H108" stroke="#1D9E75" stroke-width="3" stroke-linecap="round"/>
<path d="M82.5 49.5L93 60L82.5 70.5" stroke="#1D9E75" stroke-width="2.25" stroke-linecap="round" stroke-linejoin="round"/>
<path d="M85.0568 42V33.2727H88.0057C88.6875 33.2727 89.2472 33.3892 89.6847 33.6222C90.1222 33.8523 90.446 34.169 90.6562 34.5724C90.8665 34.9759 90.9716 35.4347 90.9716 35.9489C90.9716 36.4631 90.8665 36.919 90.6562 37.3168C90.446 37.7145 90.1236 38.027 89.6889 38.2543C89.2543 38.4787 88.6989 38.5909 88.0227 38.5909H85.6364V37.6364H87.9886C88.4545 37.6364 88.8295 37.5682 89.1136 37.4318C89.4006 37.2955 89.608 37.1023 89.7358 36.8523C89.8665 36.5994 89.9318 36.2983 89.9318 35.9489C89.9318 35.5994 89.8665 35.294 89.7358 35.0327C89.6051 34.7713 89.3963 34.5696 89.1094 34.4276C88.8224 34.2827 88.4432 34.2102 87.9716 34.2102H86.1136V42H85.0568ZM89.1648 38.0795L91.3125 42H90.0852L87.9716 38.0795H89.1648ZM100.096 37.6364C100.096 38.5568 99.93 39.3523 99.5977 40.0227C99.2653 40.6932 98.8093 41.2102 98.2298 41.5739C97.6502 41.9375 96.9883 42.1193 96.244 42.1193C95.4996 42.1193 94.8377 41.9375 94.2582 41.5739C93.6786 41.2102 93.2227 40.6932 92.8903 40.0227C92.5579 39.3523 92.3917 38.5568 92.3917 37.6364C92.3917 36.7159 92.5579 35.9205 92.8903 35.25C93.2227 34.5795 93.6786 34.0625 94.2582 33.6989C94.8377 33.3352 95.4996 33.1534 96.244 33.1534C96.9883 33.1534 97.6502 33.3352 98.2298 33.6989C98.8093 34.0625 99.2653 34.5795 99.5977 35.25C99.93 35.9205 100.096 36.7159 100.096 37.6364ZM99.0735 37.6364C99.0735 36.8807 98.9471 36.2429 98.6942 35.723C98.4442 35.2031 98.1048 34.8097 97.6758 34.5426C97.2496 34.2756 96.7724 34.142 96.244 34.142C95.7156 34.142 95.2369 34.2756 94.8079 34.5426C94.3817 34.8097 94.0423 35.2031 93.7894 35.723C93.5394 36.2429 93.4144 36.8807 93.4144 37.6364C93.4144 38.392 93.5394 39.0298 93.7894 39.5497C94.0423 40.0696 94.3817 40.4631 94.8079 40.7301C95.2369 40.9972 95.7156 41.1307 96.244 41.1307C96.7724 41.1307 97.2496 40.9972 97.6758 40.7301C98.1048 40.4631 98.4442 40.0696 98.6942 39.5497C98.9471 39.0298 99.0735 38.392 99.0735 37.6364ZM102.93 33.2727V42H101.873V33.2727H102.93Z" fill="#1D9E75"/>
</g>
<defs>
<clipPath id="clip0_6601_573">
<rect width="120" height="120" fill="white"/>
</clipPath>
</defs>
</svg>
