<svg width="79" height="48" viewBox="0 0 79 48" fill="none" xmlns="http://www.w3.org/2000/svg">
<path d="M19.5577 7.43336L28.332 16.2048C29.494 17.3664 28.0643 19.2248 26.6198 18.4304L21.8656 15.8161C21.3055 15.5082 20.6062 15.6061 20.1549 16.0559L14.7869 21.4042C14.2352 21.9539 14.2346 22.84 14.7855 23.3905L21.7504 30.3501C22.3094 30.9086 23.2226 30.9093 23.7824 30.3515L53.2295 1.0114C53.7889 0.454186 54.7009 0.454186 55.2601 1.0114L78.7872 24.4528C79.3395 25.0031 79.3395 25.8902 78.7872 26.4405L57.6359 47.5148C57.0766 48.072 56.1647 48.072 55.6053 47.5148L47.3085 39.248C46.0792 38.0232 47.722 36.1062 49.1483 37.101L52.6627 39.5521C53.2331 39.9498 54.011 39.8825 54.5025 39.3927L63.9385 29.9912C64.4907 29.4409 64.4907 28.5538 63.9385 28.0035L55.2601 19.3567C54.7009 18.7996 53.7889 18.7996 53.2295 19.3567L24.9444 47.5391C24.3946 48.0868 23.5018 48.0976 22.9387 47.5632L0.583106 26.349C0.00755778 25.803 -0.00362 24.897 0.558279 24.3373L17.5255 7.43169C18.0854 6.87382 18.9987 6.87457 19.5577 7.43336Z" fill="#00B393"/>
<path opacity="0.1" fill-rule="evenodd" clip-rule="evenodd" d="M46.8109 38.1832C46.8764 37.2049 48.036 36.3737 49.0797 37.1017L52.5941 39.5528C53.1644 39.9505 53.9423 39.8832 54.4338 39.3935L63.8697 29.992C64.4221 29.4416 64.4221 28.5545 63.8697 28.0042L55.1914 19.3576C54.6322 18.8003 53.7202 18.8003 53.1608 19.3576L41.0835 31.3909L32.6772 21.4214L53.1608 1.01212C53.7202 0.454904 54.6322 0.454904 55.1914 1.01212L78.7184 24.4535C79.2707 25.0038 79.2707 25.8909 78.7184 26.4412L57.5672 47.5155C57.0079 48.0727 56.096 48.0727 55.5367 47.5155L50.1782 42.1765L46.8109 38.1832ZM28.6803 16.6814L28.3459 16.285L28.446 16.3849C28.5409 16.4798 28.6186 16.5792 28.6803 16.6814Z" fill="#00B393"/>
</svg>
